<svg id="Layer_1" data-name="Layer 1" xmlns="http://www.w3.org/2000/svg" viewBox="0 0 432 36"><defs><style>.cls-1{fill:#26a9e0;}</style></defs><path class="cls-1" d="M10.29,24.56l2.28-12.9H21l-.62,3.51H15.92l-.22,1.24H20l-.58,3.28H15.12L14.88,21h5l-.62,3.52Z"/><path class="cls-1" d="M29.16,24.56l-2.55-6.4h-.07l-1,6.4h-4.1l2.27-12.9h4.14l2.61,6.72h.07l1.06-6.72h4.1l-2.28,12.9Z"/><path class="cls-1" d="M44.7,15.5a2.55,2.55,0,0,0-2-.82c-.67,0-1.33.29-1.33.89s.47.7,1.37,1c2.22.73,3.55,1.82,3.55,3.77,0,3.31-3.22,4.59-5.79,4.59a8.07,8.07,0,0,1-5.4-1.86L38,20.4a3.76,3.76,0,0,0,2.5,1.1c.84,0,1.4-.3,1.4-.83s-.36-.74-1.51-1.11C38.56,19,37.1,18.14,37.1,16c0-2.67,2.32-4.68,5.69-4.68A6.72,6.72,0,0,1,47.4,12.9Z"/><path class="cls-1" d="M53.66,24.88c-3.31,0-5.54-1.51-5.54-4a10.66,10.66,0,0,1,.11-1.21l1.37-8h4.17l-1.33,7.45a3.23,3.23,0,0,0,0,.6A1.42,1.42,0,0,0,54,21.22c1.49,0,1.82-1.07,2-2l1.37-7.52h4.1l-1.41,8.16C59.55,22.88,57.51,24.88,53.66,24.88Z"/><path class="cls-1" d="M69.07,24.56,67.3,19.84h-.51L66,24.56H61.93l2.28-12.9h5.3c2.82,0,4.61,1.29,4.61,3.57a3.91,3.91,0,0,1-2.83,4.06l2.52,5.27ZM69.93,16c0-.74-.57-1-1.46-1h-.78l-.39,2.17h.84C69.25,17.16,69.93,16.79,69.93,16Z"/><path class="cls-1" d="M75.12,24.56l2.28-12.9h4.24l-2.28,12.9Z"/><path class="cls-1" d="M89.89,24.56l-2.55-6.4h-.07l-1,6.4h-4.1l2.27-12.9h4.14l2.61,6.72h.07l1-6.72h4.1l-2.27,12.9Z"/><path class="cls-1" d="M107.2,16.08A2.42,2.42,0,0,0,105,15a3.45,3.45,0,0,0-3.26,3.75,2.29,2.29,0,0,0,2.58,2.48,3.48,3.48,0,0,0,1.15-.2l.2-1.13h-2.11l.58-3.32H110l-1.24,7a10.6,10.6,0,0,1-5,1.28c-3.88,0-6.45-2-6.45-5.7a7.61,7.61,0,0,1,7.67-7.93,6.49,6.49,0,0,1,5,1.81Z"/><path class="cls-1" d="M123.57,19.25l-.93,5.31h-4.21l.93-5.31L116,11.66h4.7l1.38,4,2.75-4h5.14Z"/><path class="cls-1" d="M128.6,19a7.5,7.5,0,0,1,7.83-7.69c4.17,0,6.41,2.42,6.41,5.87A7.49,7.49,0,0,1,135,24.88C130.86,24.88,128.6,22.46,128.6,19Zm7.48-3.87A3.3,3.3,0,0,0,133,18.67,2.24,2.24,0,0,0,135.37,21a3.29,3.29,0,0,0,3.08-3.52A2.23,2.23,0,0,0,136.08,15.15Z"/><path class="cls-1" d="M149.84,24.88c-3.32,0-5.54-1.51-5.54-4a8.77,8.77,0,0,1,.11-1.21l1.36-8H150l-1.33,7.45a3.23,3.23,0,0,0,0,.6,1.42,1.42,0,0,0,1.6,1.51c1.5,0,1.83-1.07,2-2l1.36-7.52h4.1l-1.4,8.16C155.72,22.88,153.68,24.88,149.84,24.88Z"/><path class="cls-1" d="M165.25,24.56l-1.77-4.72H163l-.8,4.72H158.1l2.28-12.9h5.3c2.83,0,4.61,1.29,4.61,3.57a3.9,3.9,0,0,1-2.82,4.06L170,24.56ZM166.1,16c0-.74-.56-1-1.45-1h-.79l-.38,2.17h.84C165.43,17.16,166.1,16.79,166.1,16Z"/><path class="cls-1" d="M184.1,24.56l.87-5h-3.68l-.87,5h-4.21l2.28-12.9h4.19l-.78,4.42h3.68l.78-4.42h4.23l-2.28,12.9Z"/><path class="cls-1" d="M191.11,24.56l2.28-12.9h8.43l-.62,3.51h-4.46l-.22,1.24h4.27l-.59,3.28h-4.26L195.7,21h5l-.62,3.52Z"/><path class="cls-1" d="M210.88,24.56l-.3-2h-4.19l-1.07,2h-4.7l7.92-12.9H213l2.26,12.9Zm-1-8.51L208,19.36h2.22Z"/><path class="cls-1" d="M216.74,24.56,219,11.66h4.24L221.62,21H226l-.64,3.61Z"/><path class="cls-1" d="M233.43,15.21l-1.64,9.35h-4.23l1.64-9.35h-3.26l.64-3.55h10.64l-.64,3.55Z"/><path class="cls-1" d="M244.41,24.56l.87-5H241.6l-.87,5h-4.21l2.28-12.9H243l-.78,4.42h3.68l.78-4.42h4.23l-2.28,12.9Z"/><path class="cls-1" d="M264.63,24.56l-.29-2h-4.19l-1.08,2h-4.7l7.93-12.9h4.44L269,24.56Zm-1-8.51-1.84,3.31H264Z"/><path class="cls-1" d="M278.22,24.56l-2.55-6.4h-.08l-1,6.4h-4.1l2.28-12.9h4.14l2.6,6.72h.07l1.06-6.72h4.1l-2.28,12.9Z"/><path class="cls-1" d="M287.54,11.66h5.34c2.9,0,6.2,1.53,6.2,5.5,0,4.54-3.36,7.4-7.87,7.4h-5.94ZM290,20.93h1.37a3.19,3.19,0,0,0,3.31-3.32,2.25,2.25,0,0,0-2.53-2.38H291Z"/><path class="cls-1" d="M319.15,24.56h-4.34l-.36-7.44h-.08L311,24.56H306.7l-1-12.9h4.47V19h.07l3-7.38h4.34l.15,7.38h.07l3-7.38h4.39Z"/><path class="cls-1" d="M324.15,24.56l2.28-12.9h8.44l-.62,3.51h-4.47l-.22,1.24h4.27l-.58,3.28H329L328.75,21h5l-.62,3.52Z"/><path class="cls-1" d="M335.3,24.56l2.28-12.9h4.24L340.18,21h4.36l-.64,3.61Z"/><path class="cls-1" d="M345.63,24.56l2.28-12.9h4.24L350.51,21h4.36l-.64,3.61Z"/><path class="cls-1" d="M355.28,20.93l.55-3.06h5l-.54,3.06Z"/><path class="cls-1" d="M373.74,14.48a3.31,3.31,0,0,1-2.61,3.3v0a2.7,2.7,0,0,1,2.17,2.76c0,2.62-2.31,4-5.54,4h-6l2.28-12.9H370C371.73,11.66,373.74,12.39,373.74,14.48Zm-7.13,4.85-.34,2h1.07c1,0,1.79-.19,1.79-1.08,0-.55-.46-.87-1.28-.87Zm.75-4.41-.29,1.77h1.17c.62,0,1.38-.17,1.38-1,0-.56-.51-.78-1.2-.78Z"/><path class="cls-1" d="M374.7,24.56,377,11.66h8.43l-.62,3.51h-4.46l-.22,1.24h4.27l-.59,3.28h-4.26L379.29,21h5l-.62,3.52Z"/><path class="cls-1" d="M385.85,24.56l2.28-12.9h4.24l-2.28,12.9Z"/><path class="cls-1" d="M400.62,24.56l-2.55-6.4H398l-1,6.4h-4.1l2.27-12.9h4.14l2.61,6.72H402L403,11.66h4.1l-2.27,12.9Z"/><path class="cls-1" d="M417.93,16.08a2.42,2.42,0,0,0-2.17-1,3.45,3.45,0,0,0-3.26,3.75,2.29,2.29,0,0,0,2.58,2.48,3.44,3.44,0,0,0,1.15-.2l.2-1.13h-2.11l.58-3.32h5.85l-1.24,7a10.6,10.6,0,0,1-4.95,1.28c-3.88,0-6.45-2-6.45-5.7a7.61,7.61,0,0,1,7.67-7.93,6.49,6.49,0,0,1,5,1.81Z"/></svg>