<svg id="Layer_1" data-name="Layer 1" xmlns="http://www.w3.org/2000/svg" xmlns:xlink="http://www.w3.org/1999/xlink" viewBox="0 0 360 180"><defs><style>.cls-1{fill:none;}.cls-2{fill:#d6051a;}.cls-3{clip-path:url(#clip-path);}.cls-4{fill:#a5a5a4;}.cls-5{fill:#fff;}</style><clipPath id="clip-path"><rect class="cls-1" x="19" y="40.12" width="215.66" height="91.63"/></clipPath></defs><polygon points="309.17 24 19.81 24 19.94 150 273.68 150 309.17 24"/><polygon class="cls-2" points="122.31 40.12 342.74 40.12 318.32 131.75 104.54 131.75 122.31 40.12"/><g class="cls-3"><path class="cls-2" d="M97.41,39.2a2.68,2.68,0,0,1-2.43.19,4.52,4.52,0,0,1-.51-.34l0-.12h6.64c6.42,0,12.83,0,19.25,0a4,4,0,0,1,3.53,2.25c.12.43.26.85.38,1.22-.1.08-.11.1-.13.1-1.27,0-.35.92-.77,1.3-.15.13.14.24.34.18.4-.13.52,0,.51.35q0,1.58,0,3.15c0,.29-.07.44-.43.37s-.45.06-.38.39a6,6,0,0,1,0,1.2.24.24,0,0,0,.11,0c.68,0,.68,0,.68.62,0,1,0,1.92,0,2.88,0,.32-.09.48-.49.38s-.4,0-.33.32a1.79,1.79,0,0,1,0,.86c-.12.38,0,.5.41.42a2.3,2.3,0,0,1,.35,0v3.84a.65.65,0,0,1-.2,0c-.62,0-.6,0-.52.53a2.07,2.07,0,0,1-.07.74c-.07.27,0,.37.31.3s.52,0,.51.37c0,1.16,0,2.32,0,3.47a.39.39,0,0,1-.14.06l-.7.06a3.78,3.78,0,0,1,.1.57,1.9,1.9,0,0,1-.06.63c-.12.33,0,.42.36.37h.44c0,1.25,0,2.46,0,3.67,0,.28-.21.32-.48.19s-.38,0-.37.21c0,.44.08.88.13,1.38l.7,0V75.3l-.8.09a5.5,5.5,0,0,1,.11.69,1.66,1.66,0,0,1-.1.54c-.1.27,0,.38.29.31s.54,0,.53.4c0,1,0,2.07,0,3.11,0,.31-.09.44-.47.38s-.45.05-.35.38a2.1,2.1,0,0,1,0,.9c-.06.34,0,.44.37.33s.45,0,.45.29c0,1.11,0,2.21,0,3.31,0,.29-.13.4-.45.29s-.42,0-.41.21c0,.44.07.87.12,1.36h.74v3.46c0,.5,0,.5-.58.47a1.48,1.48,0,0,0-.27,0c0,.11,0,.21,0,.31a6.29,6.29,0,0,1,0,1c0,.26,0,.36.31.3a2.73,2.73,0,0,1,.5,0v3.88h-.5c-.3,0-.33.1-.31.34a4.27,4.27,0,0,1,0,1c0,.26,0,.37.33.29s.52,0,.51.37c0,1,0,2.07,0,3.11,0,.34-.08.52-.52.39s-.36,0-.31.3a2.48,2.48,0,0,1,0,.94c-.07.32,0,.42.37.39a3,3,0,0,1,.44,0c0,1.26,0,2.48,0,3.7,0,.28-.24.24-.43.21-.43-.08-.45,0-.36.38a1.75,1.75,0,0,1,0,.85c-.06.27,0,.4.32.33s.51,0,.51.39c0,1.15,0,2.31,0,3.44-.06,0-.08.06-.11.06l-.71.06a4.41,4.41,0,0,1,.09.62,2.16,2.16,0,0,1-.09.62c-.1.27,0,.42.3.34s.53.06.52.39c0,1,0,2.07,0,3.11,0,.31-.06.51-.5.35-.28-.09-.37,0-.34.3a4.52,4.52,0,0,1,0,1c0,.28.08.36.34.31.42-.09.52,0,.52.4,0,1,0,2.05,0,3.08,0,.34-.09.5-.52.4s-.36,0-.3.31a1.9,1.9,0,0,1,0,.82c-.07.34,0,.49.41.43a1.5,1.5,0,0,1,.36,0c0,1.27.25,2.55-.39,3.73a3.56,3.56,0,0,1-2.8,2.05,11.42,11.42,0,0,1-1.3.12H101.21c-.67,0-1-.24-1-.82a1.74,1.74,0,0,1,.92-2,2.27,2.27,0,0,1,2.19-.08.9.9,0,0,0,.21.08h.21a1.68,1.68,0,0,1,.17-2.47,2.53,2.53,0,0,1,3-.21,1.93,1.93,0,0,1,0-2.44c-1.32.57-2.44.46-3.23-.64a1.49,1.49,0,0,1,.22-2.12,2.41,2.41,0,0,1,3-.33c-.46-1.14-.55-1.11,0-2.45a2.34,2.34,0,0,1-3.15-.48,1.45,1.45,0,0,1,0-2.1,2.46,2.46,0,0,1,3.11-.51,2,2,0,0,1,0-2.37,2.41,2.41,0,0,1-3-.42,1.53,1.53,0,0,1,0-2.21c.72-.84,1.44-1,3.1-.47a1.9,1.9,0,0,1,0-2.38,2.46,2.46,0,0,1-3.19-.56,1.48,1.48,0,0,1,0-1.9c.79-1.11,1.91-1.18,3.28-.62a1.94,1.94,0,0,1,0-2.42,2.39,2.39,0,0,1-3.21-.61,1.57,1.57,0,0,1,.23-2.18c.64-.68,1.46-.77,2.88-.34a5.58,5.58,0,0,1-.27-1.18,4.91,4.91,0,0,1,.29-1.19,2.3,2.3,0,0,1-3.18-.69,1.47,1.47,0,0,1,.24-2c.82-.9,1.86-.86,3.07-.34a1.93,1.93,0,0,1,0-2.43c-1.38.52-2.57.44-3.33-.77a1.52,1.52,0,0,1,.33-2,2.35,2.35,0,0,1,2.91-.32,4.92,4.92,0,0,1-.3-1.17,5.55,5.55,0,0,1,.27-1.2,2.33,2.33,0,0,1-3.24-.82,1.52,1.52,0,0,1,.36-2,2.41,2.41,0,0,1,3-.31,2,2,0,0,1,.08-2.42c-1.42.54-2.64.51-3.37-.73a1.48,1.48,0,0,1,.39-2.08,2.46,2.46,0,0,1,2.91-.26,1.93,1.93,0,0,1,.09-2.44c-1.43.55-2.6.48-3.39-.7a1.67,1.67,0,0,1,.4-2.13,2.53,2.53,0,0,1,3-.15,1.93,1.93,0,0,1,0-2.47c-1.37.57-2.54.43-3.31-.73a1.49,1.49,0,0,1,.25-2,2.39,2.39,0,0,1,3-.4,1.94,1.94,0,0,1,.11-2.45c-1.49.68-2.66.52-3.41-.69a1.53,1.53,0,0,1,.43-2.1c.73-.67,1.58-.73,2.94-.19a2,2,0,0,1-.06-2.46,2.81,2.81,0,0,1-1.79.3,2,2,0,0,1-1.42-.9,1.54,1.54,0,0,1,.23-2.15c.57-.56,1.45-1,3-.28a1.92,1.92,0,0,1,0-2.45c-1.37.6-2.51.44-3.3-.71a1.51,1.51,0,0,1,.19-2,2.41,2.41,0,0,1,3.07-.44,2,2,0,0,1,.11-2.46c-1.48.71-2.63.5-3.4-.66a1.51,1.51,0,0,1,.2-1.9,1.83,1.83,0,0,1,1.41-.77,14.06,14.06,0,0,1,1.67.2,1.94,1.94,0,0,1-.09-2.14,3,3,0,0,1-2.56-.06,1.85,1.85,0,0,1-.37,2.47,2.22,2.22,0,0,1-1.62.49,1.92,1.92,0,0,1-1.92-2.13,1.89,1.89,0,0,1,1.28-1.44,2.6,2.6,0,0,1,2.15.24,2.07,2.07,0,0,1-.24-2h-2.24a1.86,1.86,0,0,1-.79,2.32,2.41,2.41,0,0,1-1.84.23A1.9,1.9,0,0,1,97.12,41,2.06,2.06,0,0,1,97.41,39.2Zm9.8,5.53a2.1,2.1,0,0,1,0,2.35,3,3,0,0,1,2.63,0,2,2,0,0,1,0-2.2A3.39,3.39,0,0,1,107.21,44.73Zm2.55,73.65a2.14,2.14,0,0,1,0-2.12,3.48,3.48,0,0,1-2.58-.07,2.12,2.12,0,0,1,0,2.35A3.09,3.09,0,0,1,109.76,118.38Zm-2.53-49.32a3.34,3.34,0,0,1,2.5-.13,4.62,4.62,0,0,1-.23-1.06,4.43,4.43,0,0,1,.26-1.08,2.8,2.8,0,0,1-2.58-.09A2.06,2.06,0,0,1,107.23,69.06Zm0,55a3.19,3.19,0,0,1,2.61-.11,2,2,0,0,1,0-2.23,2.89,2.89,0,0,1-2.71-.1A2.15,2.15,0,0,1,107.24,124Zm2.52-22.12a2.1,2.1,0,0,1,.09-2.18,3,3,0,0,1-2.65,0,2.08,2.08,0,0,1,0,2.33A3.11,3.11,0,0,1,109.76,101.91Zm-2.55-51.68a2.19,2.19,0,0,1,.05,2.35,3.13,3.13,0,0,1,2.6-.06,2.07,2.07,0,0,1,0-2.24A2.88,2.88,0,0,1,107.21,50.23Zm2.55,35.23a5.48,5.48,0,0,1-.27-1.08,4.88,4.88,0,0,1,.25-1.08,3,3,0,0,1-2.55-.09,2,2,0,0,1,0,2.34A3,3,0,0,1,109.76,85.46Zm0,11.05a2.21,2.21,0,0,1,0-2.21,3.19,3.19,0,0,1-2.57-.11,2.07,2.07,0,0,1,0,2.33A2.65,2.65,0,0,1,109.8,96.51Zm0-22.07a2.11,2.11,0,0,1,0-2.17,2.87,2.87,0,0,1-2.59-.06,2.2,2.2,0,0,1,0,2.32A3.49,3.49,0,0,1,109.8,74.44Zm-.06,33a4.66,4.66,0,0,1-.25-1.05,4.47,4.47,0,0,1,.23-1,6.91,6.91,0,0,1-1.28.17,6.49,6.49,0,0,1-1.27-.28,2,2,0,0,1,.06,2.31A3.06,3.06,0,0,1,109.74,107.4Zm-2.53-51.68a2.17,2.17,0,0,1,0,2.35,3.21,3.21,0,0,1,2.58-.09,2.12,2.12,0,0,1,0-2.21A2.79,2.79,0,0,1,107.21,55.72Zm0,5.5a2.14,2.14,0,0,1,0,2.34,2.93,2.93,0,0,1,2.6-.05,2,2,0,0,1,0-2.2A3.13,3.13,0,0,1,107.21,61.22Zm0,18.82a3.11,3.11,0,0,1,2.64-.05,2,2,0,0,1-.05-2.21,3.08,3.08,0,0,1-2.61-.07A2.08,2.08,0,0,1,107.23,80Zm2.55,30.81a9.6,9.6,0,0,1-1.34.13,8.38,8.38,0,0,1-1.25-.25,2,2,0,0,1,.07,2.26,2.94,2.94,0,0,1,2.59,0A2,2,0,0,1,109.78,110.85Zm-2.55-22.14c.44.84.45,1.12,0,2.38a3,3,0,0,1,2.64-.14,2,2,0,0,1-.09-2.14A2.85,2.85,0,0,1,107.23,88.71Zm0,38.48a2.28,2.28,0,0,1,.08,2.14,9.33,9.33,0,0,1,1.13-.18,11,11,0,0,1,1.19.1,2.3,2.3,0,0,1,.18-2A3.13,3.13,0,0,1,107.26,127.19Zm3.29-30.1a2.41,2.41,0,0,1,0,2h2.15V97.15A3.35,3.35,0,0,1,110.55,97.09Zm2.16-9V86.19h-2.18a2.32,2.32,0,0,1,0,2A2.88,2.88,0,0,1,112.71,88.08Zm0-7.43a3.24,3.24,0,0,1-2.26-.11,2.21,2.21,0,0,1,.1,2h2.16Zm0,22h-2.13a4.31,4.31,0,0,1,.15.93,6.59,6.59,0,0,1-.19,1.09,3,3,0,0,1,2.17-.15Zm0,16.47h-2.18a2.08,2.08,0,0,1,0,1.85h2.16Zm0-42.07V75.15a3.1,3.1,0,0,1-2.16,0,2.65,2.65,0,0,1-.08,2.15A3.06,3.06,0,0,1,112.72,77.09Zm-2.18,38.43h2.17v-1.87a3.62,3.62,0,0,1-2.18-.05A2.13,2.13,0,0,1,110.54,115.52Zm2.17-21.94V91.65a3,3,0,0,1-2.16-.07,2.71,2.71,0,0,1-.06,2.16A3.05,3.05,0,0,1,112.71,93.58Zm-2.15-43.91a3.39,3.39,0,0,1,2.15-.07V47.74h-2.17A2.28,2.28,0,0,1,110.56,49.67Zm0,20a2.27,2.27,0,0,1-.06,2,2.89,2.89,0,0,1,2.23-.15V69.71Zm2.17-3.65V64.23h-2.2a2,2,0,0,1,0,1.83Zm-2.22-12.91a2.43,2.43,0,0,1,.08,2,3.06,3.06,0,0,1,2.14-.09V53.22a6.12,6.12,0,0,1-1,.11A7.72,7.72,0,0,1,110.49,53.15Zm-4.13,78.73.13-1.89a2.8,2.8,0,0,1-2.38-.06,2,2,0,0,1,.2,1.95Zm4.18-7.33a2.47,2.47,0,0,1,0,1.94h2.13v-1.84A3.32,3.32,0,0,1,110.54,124.55Zm2.17-65.81h-2.16a2.39,2.39,0,0,1,0,2,3.18,3.18,0,0,1,2.16-.12Zm0,49.46h-2.16a2.39,2.39,0,0,1,0,1.93,3.3,3.3,0,0,1,2.14-.1Zm0-64.12V42.37h-1.93l-.15,1.71Zm1.15,8.17h2a5.2,5.2,0,0,1-.14-.88,5.33,5.33,0,0,1,.13-.83h-2ZM113.75,78a2,2,0,0,1,0,1.72h2V78Zm2,45.69V122h-2.07a2.06,2.06,0,0,1,0,1.83,8.23,8.23,0,0,1,1.06-.17A7.77,7.77,0,0,1,115.78,123.72Zm0-22V100h-1.91v1.7Zm0,9.3h-1.92v1.7h1.92Zm-1.91-36.77h1.92V72.55h-1.92Zm0,14.76v1.71h1.93V89Zm1.92-25.74V61.57h-1.92v1.74c.31,0,.64-.11,1-.12A7.61,7.61,0,0,1,115.77,63.26Zm0,42.23h-1.93v1.69h1.93Zm-2,11a1.89,1.89,0,0,1,0,1.7h2v-1.7Zm2-60.4h-1.92v1.66h1.92ZM113.7,67a1.85,1.85,0,0,1,.06,1.75h2.06a9.35,9.35,0,0,1-.11-1,2.71,2.71,0,0,1,.11-.61,6,6,0,0,1-.73,0C114.66,67.08,114.24,67,113.7,67Zm.16,27.57v1.66h1.91V94.55ZM115.77,45a5.86,5.86,0,0,1-1,.12,5.25,5.25,0,0,1-1-.15v1.76h1.91Zm0,40.18V83.55h-1.92v1.66Zm-1.93,42.28.09,1.59h1.84v-1.59Zm3.21-74.14V55h1.78V53.35ZM109.39,39.9c-.54,0-1-.1-1.57-.13-.06,0-.17.17-.19.28-.06.36-.08.72-.13,1.08a3.6,3.6,0,0,1-.17.44,2.78,2.78,0,0,1,2.23-.15Zm7.67,37c.51,0,1,0,1.56,0,.09,0,.25-.1.25-.15,0-.47,0-.94,0-1.45h-1.82Zm1.78,44v-1.52l-1.78-.09v1.61Zm-1.78,3.91v1.58h1.77V124.8Zm0-33v1.62l1.78-.07V91.88Zm0,5.54v1.59l1.77-.09v-1.5Zm1.8-37V58.84h-1.8v1.61Zm0,49.47v-1.47l-1.9-.08a1.73,1.73,0,0,1,0,1.64Zm-1.78-21.92h1.79V86.4l-1.79-.09Zm0,25.89v1.6l1.79-.07v-1.53Zm1.79-31.46V80.84h-1.79v1.59Zm-1.79-18v1.55h1.79V64.36Zm0-14.91h1.82c0-.48,0-.92,0-1.37,0-.07-.19-.18-.3-.19-.36,0-.72,0-1.07,0l-.43,0Zm1.77,21.93V69.86c-.31,0-.61,0-.91,0s-.56,0-.84-.06a5.83,5.83,0,0,1,.06.72c0,.3-.1.61-.15.89Zm0,31.5-1.78-.07v1.6l1.78-.07Zm1.44-1.31h1.78v-1.45h-1.78Zm1.78-17.89h-1.78v1.43h1.78Zm0,12.41V94.64h-1.75v1.45Zm0,27.49c0-.46,0-.89,0-1.33,0,0-.19-.15-.3-.15-.4,0-.8,0-1.21,0-.1,0-.3.07-.3.12,0,.46,0,.93,0,1.37Zm0-78.38h-1.77v1.44h1.77Zm0,5.51-1.6-.08c-.07,0-.21.12-.21.18,0,.44,0,.88.08,1.33h1.73Zm-1.77,16.46v1.45h1.76V67.17Zm0,7h1.76V72.66h-1.76Zm0-12.45c0,.44,0,.85,0,1.25s.18.24.41.22a8.51,8.51,0,0,1,1,0l.37,0v-1.5Zm1.78,56.4v-1.49c-.55,0-1.06,0-1.57,0-.08,0-.22.11-.22.17,0,.43,0,.86.08,1.31ZM110.7,130.2l.14,1.44h1.65l.11-1.35Zm11.35-24.57h-1.76v1.43h1.76Zm-3.21-63.09-1.72-.08L117,44h1.8Zm3.22,15.08V56.21l-1.61-.06c-.06,0-.19.1-.19.15,0,.44,0,.88.06,1.32Zm0,53.53h-1.75c0,.21,0,.41,0,.61s0,.57-.07.81h1.79Zm-1.73-33c0,.46,0,.86-.08,1.26,0,.22,0,.26.31.24s.82,0,1.23,0c.1,0,.28-.09.28-.14,0-.45,0-.91,0-1.35Zm-.07,12.45H122V89.18l-1.52-.06c-.09,0-.24.12-.24.19C120.24,89.73,120.26,90.16,120.26,90.61Zm1.76,37-1.59-.06c-.06,0-.19.11-.18.16,0,.38.08.76.12,1.13h1.57ZM114.13,40l-.21,1.21h1.78c0-.36-.06-.7-.12-1a.36.36,0,0,0-.28-.16C114.92,40,114.55,40,114.13,40Zm2.93,90.24c.13.47.13.9.38,1.15a1.13,1.13,0,0,0,1,0c.24-.25.22-.69.31-1.06h-.83Zm3.24-89.14h1.32c.11-.08.29-.14.31-.23.11-.52-.2-.83-.79-.83a1.13,1.13,0,0,0-.32,0c-.11,0-.28.1-.31.18C120.42,40.52,120.38,40.79,120.3,41.13Z"/><path class="cls-2" d="M100.19,92.59c-.07-1,1.07-1.86,2.11-1.85a2.07,2.07,0,0,1,2.11,1.86,2,2,0,0,1-2.13,1.88A2,2,0,0,1,100.19,92.59Z"/><path class="cls-2" d="M100.19,109.1a2,2,0,0,1,2.08-1.87,2,2,0,0,1,2.14,1.88,2,2,0,0,1-2.15,1.86A2,2,0,0,1,100.19,109.1Z"/><path class="cls-2" d="M100.19,76.14a2,2,0,0,1,2.07-1.87,2,2,0,0,1,2.15,1.9A1.94,1.94,0,0,1,102.28,78,2,2,0,0,1,100.19,76.14Z"/><path class="cls-2" d="M100.19,98.08a2,2,0,0,1,2.12-1.81,1.86,1.86,0,1,1,0,3.69A1.94,1.94,0,0,1,100.19,98.08Z"/><path class="cls-2" d="M100.19,59.63a2,2,0,0,1,2.11-1.83,1.87,1.87,0,1,1-.07,3.71A2,2,0,0,1,100.19,59.63Z"/><path class="cls-2" d="M102.31,123.73a1.87,1.87,0,1,1-.06,3.71,2,2,0,0,1-2.07-1.92A2,2,0,0,1,102.31,123.73Z"/><path class="cls-2" d="M100.19,70.62a1.93,1.93,0,0,1,2.09-1.83,2,2,0,0,1,2.13,1.85,2,2,0,0,1-2.12,1.85A2,2,0,0,1,100.19,70.62Z"/><path class="cls-2" d="M102.27,83.47a2,2,0,0,1-2.09-1.83,2,2,0,0,1,2.13-1.86,2,2,0,0,1,2.1,1.85A2,2,0,0,1,102.27,83.47Z"/><path class="cls-2" d="M100.19,87.1a2,2,0,0,1,2-1.83,2,2,0,0,1,2.17,1.83A1.92,1.92,0,0,1,102.29,89C101.13,88.94,100.22,88.43,100.19,87.1Z"/><path class="cls-2" d="M102.28,118.25a1.86,1.86,0,1,1,0,3.68,1.85,1.85,0,1,1,0-3.68Z"/><path class="cls-2" d="M100.19,54.13a1.93,1.93,0,0,1,2.11-1.81,2,2,0,0,1,2.11,1.87A2,2,0,0,1,102.3,56,2,2,0,0,1,100.19,54.13Z"/><path class="cls-2" d="M102.29,116.43a1.92,1.92,0,0,1-2.1-1.85,2,2,0,0,1,2.09-1.84,2,2,0,0,1,2.13,1.87A2,2,0,0,1,102.29,116.43Z"/><path class="cls-2" d="M102.2,50.47a1.86,1.86,0,0,1-2-2,2.13,2.13,0,1,1,2,2Z"/><path class="cls-2" d="M102.33,101.77a2,2,0,0,1,2.08,1.85,2.06,2.06,0,0,1-2.16,1.84,2,2,0,0,1-2.07-1.9A2,2,0,0,1,102.33,101.77Z"/><path class="cls-2" d="M102.27,67a1.85,1.85,0,1,1,0-3.66,2,2,0,0,1,2.11,1.83A2,2,0,0,1,102.27,67Z"/><path class="cls-2" d="M97,84.36a2,2,0,0,1,2.17-1.8,1.85,1.85,0,0,1,2.06,1.69,2,2,0,0,1-2.22,2A2.07,2.07,0,0,1,97,84.36Z"/><path class="cls-2" d="M99.15,121a2,2,0,0,1,2.08,1.81,2,2,0,0,1-2.1,1.84,2,2,0,0,1-2.1-1.83A2,2,0,0,1,99.15,121Z"/><path class="cls-2" d="M99.13,91.69A2,2,0,0,1,97,89.92c0-1.24.93-1.83,2.15-1.89a1.88,1.88,0,0,1,2,1.91A2,2,0,0,1,99.13,91.69Z"/><path class="cls-2" d="M99.12,49.59a1.85,1.85,0,1,1,0,3.66A2,2,0,0,1,97,51.42,2,2,0,0,1,99.12,49.59Z"/><path class="cls-2" d="M101.23,45.93a2,2,0,0,1-2.14,1.82,1.86,1.86,0,1,1,0-3.69A2,2,0,0,1,101.23,45.93Z"/><path class="cls-2" d="M101.23,100.89a2.12,2.12,0,0,1-4.19-.06,1.9,1.9,0,0,1,2.11-1.78A1.88,1.88,0,0,1,101.23,100.89Z"/><path class="cls-2" d="M101.23,117.36a2.12,2.12,0,0,1-4.19,0,2.11,2.11,0,0,1,4.19,0Z"/><path class="cls-2" d="M99.12,69.72A2,2,0,0,1,97,67.89,2.05,2.05,0,0,1,99.13,66c1.15.08,2.08.68,2.1,1.85A2,2,0,0,1,99.12,69.72Z"/><path class="cls-2" d="M99.13,77.06a2,2,0,0,1,2.1,1.79,2.12,2.12,0,0,1-4.19,0A2,2,0,0,1,99.13,77.06Z"/><path class="cls-2" d="M99.11,64.19A1.92,1.92,0,0,1,97,62.38a2.11,2.11,0,0,1,4.19,0A1.93,1.93,0,0,1,99.11,64.19Z"/><path class="cls-2" d="M99.19,55.1a2,2,0,0,1,2,1.84A2.13,2.13,0,0,1,97,56.88,2,2,0,0,1,99.19,55.1Z"/><path class="cls-2" d="M99.14,93.53a2,2,0,0,1,2.09,1.81,2.12,2.12,0,0,1-4.19,0A2,2,0,0,1,99.14,93.53Z"/><path class="cls-2" d="M99.15,75.18a1.83,1.83,0,1,1,0-3.61,2,2,0,0,1,2.12,1.81A1.92,1.92,0,0,1,99.15,75.18Z"/><path class="cls-2" d="M99.15,108.19a1.84,1.84,0,1,1-.06-3.65,1.84,1.84,0,1,1,.06,3.65Z"/><path class="cls-2" d="M99.1,113.64A2,2,0,0,1,97,111.83,2,2,0,0,1,99.14,110a2,2,0,0,1,2.09,1.84A1.94,1.94,0,0,1,99.1,113.64Z"/><path class="cls-2" d="M99.11,130.15A2,2,0,0,1,97,128.33a2,2,0,0,1,2.14-1.82,1.84,1.84,0,1,1-.06,3.64Z"/><path class="cls-2" d="M96.11,88.9A1.83,1.83,0,0,1,94,87.27a1.88,1.88,0,0,1,1.65-1.9C97.33,85.29,98,86,98,87A1.78,1.78,0,0,1,96.11,88.9Z"/><path class="cls-2" d="M94,81.64a1.87,1.87,0,0,1,2-1.79c1.12,0,2.14.78,2.07,1.72-.1,1.31-.7,1.81-2.09,1.85A1.86,1.86,0,0,1,94,81.64Z"/><path class="cls-2" d="M96,74.36a1.88,1.88,0,0,1,2,1.78A1.9,1.9,0,0,1,96,77.9a1.85,1.85,0,0,1-2-1.82A1.9,1.9,0,0,1,96,74.36Z"/><path class="cls-2" d="M94,98.1a1.91,1.91,0,0,1,2-1.78,1.93,1.93,0,0,1,2,1.8,2,2,0,0,1-4.06,0Z"/><path class="cls-2" d="M96,105.4a1.89,1.89,0,0,1-2-1.81,2.05,2.05,0,1,1,2,1.81Z"/><path class="cls-2" d="M96,112.81a1.91,1.91,0,0,1,2,1.83,2,2,0,0,1-2,1.75,1.92,1.92,0,0,1-2-1.82A1.89,1.89,0,0,1,96,112.81Z"/><path class="cls-2" d="M96,46.87A1.81,1.81,0,1,1,96,50.45,1.8,1.8,0,1,1,96,46.87Z"/><path class="cls-2" d="M96,55.93a1.78,1.78,0,1,1,0-3.54,1.81,1.81,0,0,1,2,1.83A1.89,1.89,0,0,1,96,55.93Z"/><path class="cls-2" d="M96,41.4a1.85,1.85,0,0,1,2,1.77A1.91,1.91,0,0,1,96,45a1.89,1.89,0,0,1-2-1.82A1.87,1.87,0,0,1,96,41.4Z"/><path class="cls-2" d="M96,72.39a1.82,1.82,0,0,1-2-1.74,2,2,0,0,1,4.06,0A1.87,1.87,0,0,1,96,72.39Z"/><path class="cls-2" d="M96,66.94a1.94,1.94,0,0,1-2-1.77,1.9,1.9,0,0,1,2-1.82A2,2,0,0,1,98,65.15,2,2,0,0,1,96,66.94Z"/><path class="cls-2" d="M96,121.86a1.85,1.85,0,0,1-2-1.76,1.9,1.9,0,0,1,2-1.8A1.93,1.93,0,0,1,98,120.12,1.88,1.88,0,0,1,96,121.86Z"/><path class="cls-2" d="M96,110.85a1.87,1.87,0,0,1-2-1.77,1.89,1.89,0,0,1,2-1.74,1.85,1.85,0,0,1,2,1.77A1.83,1.83,0,0,1,96,110.85Z"/><path class="cls-2" d="M96,57.9A1.84,1.84,0,0,1,98,59.65a1.86,1.86,0,0,1-2,1.76,1.77,1.77,0,1,1,0-3.51Z"/><path class="cls-2" d="M96,90.85a1.85,1.85,0,0,1,2,1.81,1.91,1.91,0,0,1-2.09,1.73,1.79,1.79,0,1,1,.1-3.54Z"/><path class="cls-2" d="M94,125.56a2.06,2.06,0,0,1,4.07,0,1.87,1.87,0,0,1-2.1,1.76A1.84,1.84,0,0,1,94,125.56Z"/><path class="cls-2" d="M94.89,40.36a1.81,1.81,0,0,1-1.22,1.7,2.23,2.23,0,0,1-2.39-.49,1.62,1.62,0,0,1-.23-2,1.15,1.15,0,0,1,1.18-.63,10.11,10.11,0,0,0,1.1,0,1.36,1.36,0,0,1,1.55,1.22A1.64,1.64,0,0,1,94.89,40.36Z"/><path class="cls-2" d="M92.79,86.1a1.78,1.78,0,0,1-2-1.77A2,2,0,0,1,93,82.64a1.75,1.75,0,1,1-.19,3.46Z"/><path class="cls-2" d="M92.81,75.13a1.85,1.85,0,0,1-2-1.81,1.9,1.9,0,0,1,2-1.69,1.77,1.77,0,1,1,0,3.5Z"/><path class="cls-2" d="M92.86,53.15a1.87,1.87,0,0,1-2-1.73,1.9,1.9,0,0,1,2-1.77,2,2,0,0,1,2.05,1.76A1.92,1.92,0,0,1,92.86,53.15Z"/><path class="cls-2" d="M92.86,124.58a1.88,1.88,0,0,1-2-1.72,2,2,0,0,1,4,0A1.91,1.91,0,0,1,92.86,124.58Z"/><path class="cls-2" d="M92.85,99.14a1.83,1.83,0,0,1,2,1.71,1.85,1.85,0,0,1-2,1.75,1.75,1.75,0,1,1,0-3.46Z"/><path class="cls-2" d="M92.87,77.17a1.88,1.88,0,0,1,2,1.69,1.9,1.9,0,0,1-2,1.77,1.88,1.88,0,0,1-2.05-1.73A1.81,1.81,0,0,1,92.87,77.17Z"/><path class="cls-2" d="M92.84,44.18a1.89,1.89,0,0,1,2,1.75,1.94,1.94,0,0,1-2,1.73,1.91,1.91,0,0,1-2-1.75A1.89,1.89,0,0,1,92.84,44.18Z"/><path class="cls-2" d="M90.85,111.85a1.86,1.86,0,0,1,2-1.74,1.91,1.91,0,0,1,2,1.75,2,2,0,0,1-2,1.75A1.91,1.91,0,0,1,90.85,111.85Z"/><path class="cls-2" d="M92.83,60.67a1.85,1.85,0,0,1,2,1.73,2,2,0,0,1-4,0A1.84,1.84,0,0,1,92.83,60.67Z"/><path class="cls-2" d="M90.85,89.84a1.82,1.82,0,0,1,1.72-1.71c1.72.08,2.21.59,2.27,1.76a1.8,1.8,0,0,1-2,1.73A1.82,1.82,0,0,1,90.85,89.84Z"/><path class="cls-2" d="M92.87,69.61a1.89,1.89,0,0,1-2-1.7,2,2,0,0,1,4,0A1.85,1.85,0,0,1,92.87,69.61Z"/><path class="cls-2" d="M90.85,95.35a1.85,1.85,0,0,1,2-1.73,1.87,1.87,0,0,1,2,1.77,2,2,0,0,1-2,1.73A1.9,1.9,0,0,1,90.85,95.35Z"/><path class="cls-2" d="M90.85,56.91a1.88,1.88,0,0,1,2-1.77,1.94,1.94,0,0,1,2,1.74,2,2,0,0,1-4,0Z"/><path class="cls-2" d="M92.85,119.07a1.86,1.86,0,0,1-2-1.73,2,2,0,0,1,4,0A1.85,1.85,0,0,1,92.85,119.07Z"/><path class="cls-2" d="M92.83,108.09a1.85,1.85,0,0,1-2-1.7,1.91,1.91,0,0,1,2-1.8,2,2,0,0,1,2,1.75A1.93,1.93,0,0,1,92.83,108.09Z"/><path class="cls-2" d="M90.85,128.31a1.87,1.87,0,0,1,2-1.73,1.93,1.93,0,0,1,2,1.73,1.9,1.9,0,0,1-2,1.79A1.87,1.87,0,0,1,90.85,128.31Z"/><path class="cls-2" d="M91.72,87.14a2,2,0,0,1-2.14,1.73,1.82,1.82,0,0,1-1.84-1.79,1.84,1.84,0,0,1,2.06-1.66A1.88,1.88,0,0,1,91.72,87.14Z"/><path class="cls-2" d="M89.66,77.85a1.88,1.88,0,0,1-1.94-1.75,1.92,1.92,0,0,1,2-1.69,1.74,1.74,0,1,1-.08,3.44Z"/><path class="cls-2" d="M89.73,123.88a1.73,1.73,0,1,1-2,1.72A1.85,1.85,0,0,1,89.73,123.88Z"/><path class="cls-2" d="M89.7,107.39a1.74,1.74,0,1,1-2,1.66A1.85,1.85,0,0,1,89.7,107.39Z"/><path class="cls-2" d="M89.69,94.33a1.84,1.84,0,0,1-2-1.67,2,2,0,1,1,2,1.67Z"/><path class="cls-2" d="M89.69,44.86a1.83,1.83,0,0,1-2-1.7,1.92,1.92,0,0,1,2-1.72,1.73,1.73,0,1,1,0,3.42Z"/><path class="cls-2" d="M89.65,61.36a1.85,1.85,0,0,1-1.93-1.74,1.94,1.94,0,0,1,2-1.7,1.74,1.74,0,1,1-.07,3.44Z"/><path class="cls-2" d="M89.73,118.4a1.85,1.85,0,0,1,2,1.69,1.89,1.89,0,0,1-2,1.71,1.83,1.83,0,0,1-1.92-1.72A1.8,1.8,0,0,1,89.73,118.4Z"/><path class="cls-2" d="M89.69,99.82a1.88,1.88,0,0,1-2-1.72,1.93,1.93,0,0,1,2-1.71,1.9,1.9,0,0,1,2,1.74A1.87,1.87,0,0,1,89.69,99.82Z"/><path class="cls-2" d="M89.69,68.93a1.73,1.73,0,1,1-2,1.71A1.86,1.86,0,0,1,89.69,68.93Z"/><path class="cls-2" d="M89.66,83.32a1.84,1.84,0,0,1-1.94-1.72,2,2,0,0,1,4,0A1.86,1.86,0,0,1,89.66,83.32Z"/><path class="cls-2" d="M87.72,48.68a2,2,0,1,1,2,1.67A1.87,1.87,0,0,1,87.72,48.68Z"/><path class="cls-2" d="M91.68,54.16a1.85,1.85,0,0,1-2,1.72,1.9,1.9,0,0,1-2-1.72,1.84,1.84,0,0,1,2-1.7A1.87,1.87,0,0,1,91.68,54.16Z"/><path class="cls-2" d="M89.72,116.28a1.83,1.83,0,0,1-2-1.68,1.87,1.87,0,0,1,2-1.71,1.89,1.89,0,0,1,2,1.73A1.87,1.87,0,0,1,89.72,116.28Z"/><path class="cls-2" d="M91.68,103.6a1.85,1.85,0,0,1-2,1.73,1.82,1.82,0,0,1-2-1.74,1.85,1.85,0,0,1,2-1.68A1.9,1.9,0,0,1,91.68,103.6Z"/><path class="cls-2" d="M89.68,66.83a1.81,1.81,0,0,1-2-1.68,1.85,1.85,0,0,1,2-1.71,1.72,1.72,0,1,1,0,3.39Z"/><path class="cls-2" d="M96,132.28h-.91c-.71,0-1-.27-1.09-.89-.14-1.41.9-2.29,2.52-2a1.73,1.73,0,0,1,1.44,1.11,1.55,1.55,0,0,1-.25,1.66.64.64,0,0,1-.43.16c-.42,0-.85,0-1.28,0Z"/><path class="cls-2" d="M86.56,38.89a4.17,4.17,0,0,1,1.1.16A1.48,1.48,0,0,1,88.39,41a1.82,1.82,0,0,1-2,1.13,1.72,1.72,0,0,1-1.7-1.2,1.47,1.47,0,0,1,.73-1.83A4.05,4.05,0,0,1,86.56,38.89Z"/><path class="cls-2" d="M86.61,71.75a1.66,1.66,0,0,1,1.83,1.69,1.75,1.75,0,0,1-2,1.61,1.73,1.73,0,0,1-1.78-1.71A1.7,1.7,0,0,1,86.61,71.75Z"/><path class="cls-2" d="M84.67,100.83a1.9,1.9,0,1,1,1.85,1.68A1.67,1.67,0,0,1,84.67,100.83Z"/><path class="cls-2" d="M86.56,121.2a1.71,1.71,0,0,1,1.88,1.61,1.9,1.9,0,0,1-3.77.07A1.67,1.67,0,0,1,86.56,121.2Z"/><path class="cls-2" d="M84.67,67.85a1.9,1.9,0,0,1,3.77.11,1.75,1.75,0,0,1-1.93,1.59A1.71,1.71,0,0,1,84.67,67.85Z"/><path class="cls-2" d="M84.67,51.39a1.68,1.68,0,0,1,1.85-1.63,1.7,1.7,0,0,1,1.92,1.66,1.73,1.73,0,0,1-1.86,1.65C85.52,53,84.63,52.47,84.67,51.39Z"/><path class="cls-2" d="M84.67,117.33c0-1,.76-1.64,1.93-1.64a1.69,1.69,0,0,1,1.84,1.65A1.73,1.73,0,0,1,86.55,119,1.71,1.71,0,0,1,84.67,117.33Z"/><path class="cls-2" d="M86.54,91.52a1.7,1.7,0,0,1-1.87-1.66,1.68,1.68,0,0,1,1.93-1.63c1.19,0,1.85.62,1.84,1.69A1.74,1.74,0,0,1,86.54,91.52Z"/><path class="cls-2" d="M86.55,80.52a1.67,1.67,0,0,1-1.88-1.67,1.9,1.9,0,0,1,3.77,0A1.69,1.69,0,0,1,86.55,80.52Z"/><path class="cls-2" d="M86.56,130a1.66,1.66,0,0,1-1.88-1.68,1.71,1.71,0,0,1,1.91-1.62,1.74,1.74,0,0,1,1.85,1.65A1.71,1.71,0,0,1,86.56,130Z"/><path class="cls-2" d="M86.6,97c-1.14,0-1.89-.57-1.92-1.55a1.7,1.7,0,0,1,1.87-1.74,1.75,1.75,0,0,1,1.89,1.62C88.47,96.31,87.75,97,86.6,97Z"/><path class="cls-2" d="M84.67,45.92c0-1.06.84-1.65,1.91-1.68a1.75,1.75,0,0,1,1.86,1.66,1.9,1.9,0,0,1-3.77,0Z"/><path class="cls-2" d="M86.57,55.26a1.69,1.69,0,0,1,1.87,1.63,1.74,1.74,0,0,1-1.86,1.68,1.7,1.7,0,0,1-1.9-1.68A1.67,1.67,0,0,1,86.57,55.26Z"/><path class="cls-2" d="M84.68,106.32c-.05-.86.76-1.63,2-1.61a1.67,1.67,0,1,1-.13,3.31A1.7,1.7,0,0,1,84.68,106.32Z"/><path class="cls-2" d="M86.53,113.48a1.65,1.65,0,0,1-1.86-1.65,1.9,1.9,0,0,1,3.77,0A1.7,1.7,0,0,1,86.53,113.48Z"/><path class="cls-2" d="M88.44,84.38c0,1-.83,1.67-2.07,1.69a1.77,1.77,0,0,1-1.71-1.7,1.67,1.67,0,0,1,1.89-1.62A1.65,1.65,0,0,1,88.44,84.38Z"/><path class="cls-2" d="M86.56,64a1.66,1.66,0,0,1-1.89-1.65,1.9,1.9,0,0,1,3.77,0A1.65,1.65,0,0,1,86.56,64Z"/><path class="cls-2" d="M85.26,120.14a1.89,1.89,0,0,1-3.74-.06c0-1,.74-1.59,1.89-1.62A1.68,1.68,0,0,1,85.26,120.14Z"/><path class="cls-2" d="M85.25,87.11a1.75,1.75,0,0,1-1.73,1.67,1.72,1.72,0,0,1-2-1.66,1.68,1.68,0,0,1,1.88-1.65A1.77,1.77,0,0,1,85.25,87.11Z"/><path class="cls-2" d="M85.25,98.14a1.88,1.88,0,0,1-3.73,0,1.78,1.78,0,0,1,2-1.62A1.71,1.71,0,0,1,85.25,98.14Z"/><path class="cls-2" d="M89.66,132.28H89c-.84,0-1.19-.26-1.29-1a1.86,1.86,0,0,1,2.41-1.84c1.27.31,1.86,1.31,1.37,2.33a.81.81,0,0,1-.89.52C90.3,132.26,90,132.28,89.66,132.28Z"/><path class="cls-2" d="M85.25,48.67a1.71,1.71,0,0,1-1.82,1.62,1.65,1.65,0,1,1,1.82-1.62Z"/><path class="cls-2" d="M85.25,81.64c.09.88-.89,1.6-1.77,1.64a1.73,1.73,0,0,1-2-1.66A1.76,1.76,0,0,1,83.4,80,1.73,1.73,0,0,1,85.25,81.64Z"/><path class="cls-2" d="M85.25,54.17a1.68,1.68,0,0,1-1.87,1.6,1.73,1.73,0,0,1-1.87-1.63,1.81,1.81,0,0,1,1.91-1.63A1.72,1.72,0,0,1,85.25,54.17Z"/><path class="cls-2" d="M85.26,103.59a1.75,1.75,0,0,1-1.84,1.66,1.83,1.83,0,0,1-1.91-1.62A1.8,1.8,0,0,1,83.42,102,1.75,1.75,0,0,1,85.26,103.59Z"/><path class="cls-2" d="M85.26,76.16a1.7,1.7,0,0,1-1.85,1.6,1.76,1.76,0,0,1-1.9-1.63,1.8,1.8,0,0,1,1.91-1.63A1.7,1.7,0,0,1,85.26,76.16Z"/><path class="cls-2" d="M85.25,114.61c.1.88-.91,1.64-1.87,1.64a1.84,1.84,0,0,1-1.87-1.67A1.8,1.8,0,0,1,83.42,113,1.71,1.71,0,0,1,85.25,114.61Z"/><path class="cls-2" d="M83.41,127.2a1.64,1.64,0,1,1,0-3.24,1.63,1.63,0,1,1,0,3.24Z"/><path class="cls-2" d="M85.26,65.17a1.76,1.76,0,0,1-1.85,1.62,1.87,1.87,0,0,1-1.91-1.64,1.85,1.85,0,0,1,1.88-1.65A1.76,1.76,0,0,1,85.26,65.17Z"/><path class="cls-2" d="M85.25,43.16a1.74,1.74,0,0,1-1.84,1.65,1.84,1.84,0,0,1-1.9-1.64,1.79,1.79,0,0,1,1.93-1.63A1.7,1.7,0,0,1,85.25,43.16Z"/><path class="cls-2" d="M85.25,70.67a1.68,1.68,0,0,1-1.85,1.58,1.76,1.76,0,0,1-1.89-1.58A1.84,1.84,0,0,1,83.4,69,1.74,1.74,0,0,1,85.25,70.67Z"/><path class="cls-2" d="M85.25,92.62a1.7,1.7,0,0,1-1.82,1.63,1.65,1.65,0,1,1,0-3.27A1.72,1.72,0,0,1,85.25,92.62Z"/><path class="cls-2" d="M83.39,58.05a1.64,1.64,0,1,1,0,3.24,1.77,1.77,0,0,1-1.91-1.63A1.74,1.74,0,0,1,83.39,58.05Z"/><path class="cls-2" d="M85.25,109.1a1.71,1.71,0,0,1-1.84,1.64,1.8,1.8,0,0,1-1.9-1.6,1.77,1.77,0,0,1,1.92-1.64A1.65,1.65,0,0,1,85.25,109.1Z"/><path class="cls-2" d="M80.18,38.94c1.34,0,1.9.64,1.91,1.45a1.84,1.84,0,0,1-3.65,0C78.46,39.47,79.08,38.93,80.18,38.94Z"/><path class="cls-2" d="M80.26,86a1.72,1.72,0,0,1-1.85-1.58,1.88,1.88,0,0,1,3.71,0A1.76,1.76,0,0,1,80.26,86Z"/><path class="cls-2" d="M82.05,100.87a1.59,1.59,0,0,1-1.75,1.56,1.64,1.64,0,0,1-1.86-1.56,1.69,1.69,0,0,1,1.79-1.6A1.63,1.63,0,0,1,82.05,100.87Z"/><path class="cls-2" d="M82.05,89.9a1.61,1.61,0,0,1-1.78,1.54,1.68,1.68,0,0,1-1.83-1.56,1.64,1.64,0,0,1,1.79-1.63C81.23,88.31,82.1,88.87,82.05,89.9Z"/><path class="cls-2" d="M82.05,51.4c0,1-.71,1.58-1.82,1.58a1.64,1.64,0,0,1-1.79-1.59,1.72,1.72,0,0,1,1.78-1.58A1.65,1.65,0,0,1,82.05,51.4Z"/><path class="cls-2" d="M82.05,78.91c.08.9-.89,1.6-1.84,1.58a1.7,1.7,0,0,1-1.77-1.67c0-.91.79-1.51,1.89-1.49S82.07,78,82.05,78.91Z"/><path class="cls-2" d="M82.06,73.41a1.83,1.83,0,0,1-3.62,0,1.67,1.67,0,0,1,1.84-1.55A1.62,1.62,0,0,1,82.06,73.41Z"/><path class="cls-2" d="M82.05,117.38a1.82,1.82,0,0,1-3.6-.06,1.68,1.68,0,0,1,1.91-1.56A1.61,1.61,0,0,1,82.05,117.38Z"/><path class="cls-2" d="M82.05,128.35a1.64,1.64,0,0,1-1.79,1.58,1.67,1.67,0,0,1-1.81-1.58,1.63,1.63,0,0,1,1.83-1.6A1.61,1.61,0,0,1,82.05,128.35Z"/><path class="cls-2" d="M82.06,56.89a1.82,1.82,0,0,1-3.61,0c0-1,.82-1.57,1.84-1.58A1.63,1.63,0,0,1,82.06,56.89Z"/><path class="cls-2" d="M80.22,69.45a1.6,1.6,0,0,1-1.77-1.62,1.69,1.69,0,0,1,1.86-1.53,1.59,1.59,0,1,1-.09,3.15Z"/><path class="cls-2" d="M82.05,122.84a1.58,1.58,0,0,1-1.79,1.55c-1.12,0-1.82-.61-1.82-1.58a1.69,1.69,0,0,1,1.83-1.56A1.62,1.62,0,0,1,82.05,122.84Z"/><path class="cls-2" d="M82.05,95.39A1.65,1.65,0,0,1,80.24,97a1.71,1.71,0,0,1-1.8-1.61,1.67,1.67,0,0,1,1.86-1.56A1.6,1.6,0,0,1,82.05,95.39Z"/><path class="cls-2" d="M82.05,45.94a1.62,1.62,0,0,1-1.82,1.55,1.69,1.69,0,0,1-1.79-1.55,1.64,1.64,0,0,1,1.82-1.6A1.59,1.59,0,0,1,82.05,45.94Z"/><path class="cls-2" d="M80.24,110.3a1.59,1.59,0,0,1,1.82,1.53,1.66,1.66,0,0,1-1.77,1.61,1.73,1.73,0,0,1-1.85-1.51A1.62,1.62,0,0,1,80.24,110.3Z"/><path class="cls-2" d="M82.05,106.38a1.6,1.6,0,0,1-1.77,1.54,1.64,1.64,0,0,1-1.84-1.61,1.73,1.73,0,0,1,1.86-1.55C81.24,104.77,82.17,105.53,82.05,106.38Z"/><path class="cls-2" d="M80.29,60.85a1.65,1.65,0,0,1,1.78,1.58A1.71,1.71,0,0,1,80.25,64a1.67,1.67,0,0,1-1.8-1.59A1.6,1.6,0,0,1,80.29,60.85Z"/><path class="cls-2" d="M77.12,88.73a1.61,1.61,0,1,1-.07-3.2c.89,0,2,.8,1.9,1.52A1.87,1.87,0,0,1,77.12,88.73Z"/><path class="cls-2" d="M78.86,76.18a1.61,1.61,0,0,1-1.75,1.52,1.69,1.69,0,0,1-1.78-1.61,1.76,1.76,0,0,1,1.83-1.54A1.65,1.65,0,0,1,78.86,76.18Z"/><path class="cls-2" d="M78.86,98.11a1.58,1.58,0,0,1-1.67,1.55,1.57,1.57,0,1,1-.07-3.11A1.63,1.63,0,0,1,78.86,98.11Z"/><path class="cls-2" d="M78.86,125.61a1.66,1.66,0,0,1-1.77,1.57,1.72,1.72,0,0,1-1.75-1.6A1.65,1.65,0,0,1,77.18,124,1.57,1.57,0,0,1,78.86,125.61Z"/><path class="cls-2" d="M78.86,54.16a1.61,1.61,0,0,1-1.71,1.56,1.58,1.58,0,1,1,0-3.12A1.6,1.6,0,0,1,78.86,54.16Z"/><path class="cls-2" d="M78.86,59.7A1.62,1.62,0,0,1,77,61.2a1.66,1.66,0,0,1-1.68-1.59,1.75,1.75,0,0,1,1.82-1.54A1.63,1.63,0,0,1,78.86,59.7Z"/><path class="cls-2" d="M78.86,70.67a1.61,1.61,0,0,1-1.75,1.53,1.65,1.65,0,0,1-1.78-1.56,1.74,1.74,0,0,1,1.82-1.57A1.63,1.63,0,0,1,78.86,70.67Z"/><path class="cls-2" d="M78.85,92.64a1.58,1.58,0,0,1-1.72,1.53,1.69,1.69,0,0,1-1.8-1.55A1.73,1.73,0,0,1,77.09,91,1.61,1.61,0,0,1,78.85,92.64Z"/><path class="cls-2" d="M78.86,114.54a1.61,1.61,0,0,1-1.7,1.61,1.68,1.68,0,0,1-1.82-1.53,1.77,1.77,0,0,1,3.52-.08Z"/><path class="cls-2" d="M77.12,44.71a1.58,1.58,0,1,1,0-3.12,1.57,1.57,0,1,1,0,3.12Z"/><path class="cls-2" d="M78.85,120.1c.11.89-.89,1.56-1.72,1.56a1.72,1.72,0,0,1-1.8-1.55,1.7,1.7,0,0,1,1.83-1.57C78,118.52,79,119.24,78.85,120.1Z"/><path class="cls-2" d="M78.85,103.6a1.62,1.62,0,0,1-1.69,1.59,1.58,1.58,0,1,1,0-3.12C78,102.07,79,102.75,78.85,103.6Z"/><path class="cls-2" d="M78.86,48.69c.1.81-.89,1.56-1.76,1.53a1.58,1.58,0,1,1,.07-3.12C77.93,47.08,79,47.77,78.86,48.69Z"/><path class="cls-2" d="M78.86,81.61a1.63,1.63,0,0,1-1.75,1.57,1.7,1.7,0,0,1-1.78-1.53,1.75,1.75,0,0,1,1.78-1.59C77.89,80.08,78.9,80.6,78.86,81.61Z"/><path class="cls-2" d="M78.85,109.13a1.61,1.61,0,0,1-1.76,1.54,1.58,1.58,0,1,1,0-3.13C77.88,107.54,78.94,108.1,78.85,109.13Z"/><path class="cls-2" d="M78.85,65.17c.1.75-.72,1.53-1.74,1.52a1.57,1.57,0,1,1,0-3.1A1.6,1.6,0,0,1,78.85,65.17Z"/><path class="cls-2" d="M83.41,132.28h-.69a1,1,0,0,1-1.09-.88,1.62,1.62,0,0,1,1.75-1.91,1.76,1.76,0,0,1,1.64.83,1.37,1.37,0,0,1-.17,1.72.86.86,0,0,1-.53.23,6.91,6.91,0,0,1-.91,0Z"/><path class="cls-2" d="M75.66,95.36A1.53,1.53,0,0,1,74,96.87a1.62,1.62,0,0,1-1.79-1.49,1.67,1.67,0,0,1,1.69-1.55C74.68,93.8,75.74,94.39,75.66,95.36Z"/><path class="cls-2" d="M75.65,73.4c.09,1-.94,1.53-1.7,1.51a1.6,1.6,0,0,1-1.71-1.54A1.55,1.55,0,0,1,74,71.89,1.51,1.51,0,0,1,75.65,73.4Z"/><path class="cls-2" d="M75.68,84.47c-.08,1-.89,1.41-1.94,1.44a1.61,1.61,0,0,1-1.51-1.59A1.63,1.63,0,0,1,74,82.86,1.57,1.57,0,0,1,75.68,84.47Z"/><path class="cls-2" d="M75.65,100.89c.08.92-.79,1.49-1.7,1.48a1.6,1.6,0,0,1-1.72-1.52A1.64,1.64,0,0,1,74,99.35,1.51,1.51,0,0,1,75.65,100.89Z"/><path class="cls-2" d="M75.65,122.86a1.52,1.52,0,0,1-1.71,1.49,1.52,1.52,0,1,1,0-3A1.51,1.51,0,0,1,75.65,122.86Z"/><path class="cls-2" d="M75.65,117.38c0,1-.8,1.47-1.72,1.46a1.51,1.51,0,0,1-1.69-1.53A1.56,1.56,0,0,1,74,115.83,1.48,1.48,0,0,1,75.65,117.38Z"/><path class="cls-2" d="M75.65,51.44A1.53,1.53,0,0,1,74,52.92a1.52,1.52,0,1,1,0-3A1.5,1.5,0,0,1,75.65,51.44Z"/><path class="cls-2" d="M75.65,89.89c.12.88-.92,1.52-1.71,1.5a1.62,1.62,0,0,1-1.7-1.53,1.52,1.52,0,0,1,1.52-1.5C75,88.37,75.66,88.92,75.65,89.89Z"/><path class="cls-2" d="M75.65,45.94c0,.93-.75,1.45-1.68,1.46a1.54,1.54,0,0,1-1.73-1.52A1.58,1.58,0,0,1,74,44.39,1.53,1.53,0,0,1,75.65,45.94Z"/><path class="cls-2" d="M75.65,78.89c.09.88-.81,1.5-1.7,1.5a1.52,1.52,0,1,1,0-3A1.53,1.53,0,0,1,75.65,78.89Z"/><path class="cls-2" d="M75.65,62.42c.09.84-.71,1.47-1.67,1.48a1.58,1.58,0,0,1-1.74-1.53A1.6,1.6,0,0,1,74,60.88,1.53,1.53,0,0,1,75.65,62.42Z"/><path class="cls-2" d="M75.65,111.86a1.52,1.52,0,0,1-1.71,1.48,1.58,1.58,0,0,1-1.71-1.52A1.67,1.67,0,0,1,74,110.33C74.73,110.32,75.76,110.9,75.65,111.86Z"/><path class="cls-2" d="M75.66,128.35c.06.91-.9,1.52-1.77,1.49a1.52,1.52,0,1,1,.14-3A1.51,1.51,0,0,1,75.66,128.35Z"/><path class="cls-2" d="M75.66,56.84a1.54,1.54,0,0,1-1.58,1.57A1.62,1.62,0,0,1,72.23,57a1.51,1.51,0,0,1,1.64-1.52C75,55.42,75.64,56,75.66,56.84Z"/><path class="cls-2" d="M75.66,67.89c.08,1-1,1.51-1.69,1.52a1.65,1.65,0,0,1-1.74-1.52,1.57,1.57,0,0,1,1.7-1.49C75,66.38,75.7,67,75.66,67.89Z"/><path class="cls-2" d="M75.66,106.36A1.56,1.56,0,0,1,74,107.87a1.52,1.52,0,1,1,0-3C74.76,104.85,75.75,105.43,75.66,106.36Z"/><path class="cls-2" d="M75.65,40.45c.1.73-.8,1.49-1.71,1.47a1.63,1.63,0,0,1-1.7-1.54c0-.8.71-1.45,1.88-1.44A1.51,1.51,0,0,1,75.65,40.45Z"/><path class="cls-2" d="M70.8,55.62a1.57,1.57,0,0,1-1.65-1.46,1.59,1.59,0,0,1,1.7-1.48,1.49,1.49,0,1,1,0,2.94Z"/><path class="cls-2" d="M72.46,87.08c.1.88-.84,1.52-1.62,1.55A1.72,1.72,0,0,1,69.11,87c0-.69.86-1.35,1.7-1.4A1.57,1.57,0,0,1,72.46,87.08Z"/><path class="cls-2" d="M69.17,48.68a1.57,1.57,0,0,1,1.63-1.52,1.66,1.66,0,0,1,1.72,1.52,1.68,1.68,0,0,1-1.69,1.48C70,50.16,69.05,49.47,69.17,48.68Z"/><path class="cls-2" d="M69.17,98.11a1.52,1.52,0,0,1,1.64-1.47,1.49,1.49,0,1,1,0,3A1.53,1.53,0,0,1,69.17,98.11Z"/><path class="cls-2" d="M69.16,120.13a1.54,1.54,0,0,1,1.63-1.53,1.5,1.5,0,1,1,0,3C70.11,121.61,69,120.91,69.16,120.13Z"/><path class="cls-2" d="M69.17,125.6c-.14-.69.72-1.51,1.68-1.49a1.56,1.56,0,0,1,1.67,1.46,1.69,1.69,0,0,1-3.35,0Z"/><path class="cls-2" d="M69.16,76.13c-.12-.75.83-1.49,1.66-1.47a1.6,1.6,0,0,1,1.69,1.45,1.56,1.56,0,0,1-1.66,1.5A1.53,1.53,0,0,1,69.16,76.13Z"/><path class="cls-2" d="M70.82,113.13a1.61,1.61,0,0,1,1.7,1.48,1.66,1.66,0,0,1-1.69,1.47,1.49,1.49,0,1,1,0-3Z"/><path class="cls-2" d="M69.16,103.61a1.52,1.52,0,0,1,1.65-1.47,1.48,1.48,0,1,1,0,2.94A1.55,1.55,0,0,1,69.16,103.61Z"/><path class="cls-2" d="M69.16,81.6a1.55,1.55,0,0,1,1.68-1.44,1.61,1.61,0,0,1,1.68,1.47,1.59,1.59,0,0,1-1.71,1.48A1.53,1.53,0,0,1,69.16,81.6Z"/><path class="cls-2" d="M69.16,65.14a1.58,1.58,0,0,1,1.69-1.48,1.5,1.5,0,1,1,0,3C70.09,66.63,69.07,66,69.16,65.14Z"/><path class="cls-2" d="M69.17,43.16c-.13-.72.85-1.5,1.64-1.48a1.65,1.65,0,0,1,1.7,1.49,1.61,1.61,0,0,1-1.66,1.48C69.92,44.64,69.08,44,69.17,43.16Z"/><path class="cls-2" d="M69.17,70.66a1.55,1.55,0,0,1,1.6-1.52,1.64,1.64,0,0,1,1.74,1.5,1.53,1.53,0,0,1-1.63,1.44C69.85,72.09,69.18,71.53,69.17,70.66Z"/><path class="cls-2" d="M69.16,109.09a1.51,1.51,0,0,1,1.67-1.43c1.15,0,1.7.68,1.68,1.46a1.52,1.52,0,0,1-1.66,1.45A1.54,1.54,0,0,1,69.16,109.09Z"/><path class="cls-2" d="M70.83,91.17a1.46,1.46,0,1,1,0,2.89,1.49,1.49,0,0,1-1.65-1.46A1.51,1.51,0,0,1,70.83,91.17Z"/><path class="cls-2" d="M69.16,59.64a1.51,1.51,0,0,1,1.66-1.44,1.48,1.48,0,1,1,0,2.92A1.54,1.54,0,0,1,69.16,59.64Z"/><path class="cls-2" d="M77.21,132.31a6.26,6.26,0,0,1-1-.1,1.2,1.2,0,0,1-.56-1.94A1.93,1.93,0,0,1,78,129.8a1.43,1.43,0,0,1,.55,2.09.78.78,0,0,1-.77.39,5.8,5.8,0,0,0-.59,0Z"/><path class="cls-2" d="M67.68,102.29a1.44,1.44,0,1,1,0-2.85,1.44,1.44,0,1,1,0,2.85Z"/><path class="cls-2" d="M67.67,124.26c-1,0-1.59-.58-1.62-1.4s.62-1.41,1.61-1.47a1.64,1.64,0,0,1,1.69,1.42A1.57,1.57,0,0,1,67.67,124.26Z"/><path class="cls-2" d="M67.67,83a1.62,1.62,0,0,1,1.7,1.39c0,.72-.88,1.5-1.72,1.49S66,85.1,66,84.41A1.58,1.58,0,0,1,67.67,83Z"/><path class="cls-2" d="M67.71,50a1.6,1.6,0,0,1,1.64,1.44,1.56,1.56,0,0,1-1.69,1.4A1.46,1.46,0,0,1,66,51.42,1.51,1.51,0,0,1,67.71,50Z"/><path class="cls-2" d="M67.7,80.34A1.58,1.58,0,0,1,66,78.9a1.5,1.5,0,0,1,1.58-1.45,1.54,1.54,0,0,1,1.71,1.42C69.4,79.6,68.55,80.33,67.7,80.34Z"/><path class="cls-2" d="M67.72,88.4c1.1.09,1.61.64,1.58,1.54s-.68,1.33-1.64,1.35A1.57,1.57,0,0,1,66,89.92,1.71,1.71,0,0,1,67.72,88.4Z"/><path class="cls-2" d="M67.69,115.92a1.6,1.6,0,0,1,1.66,1.42,1.55,1.55,0,0,1-1.72,1.41A1.45,1.45,0,0,1,66,117.33,1.49,1.49,0,0,1,67.69,115.92Z"/><path class="cls-2" d="M67.68,94a1.46,1.46,0,0,1,1.64,1.41,1.66,1.66,0,0,1-3.28,0A1.47,1.47,0,0,1,67.68,94Z"/><path class="cls-2" d="M67.67,113.3A1.65,1.65,0,0,1,66,111.87a1.61,1.61,0,0,1,1.65-1.46c1.07.1,1.62.55,1.65,1.44S68.69,113.24,67.67,113.3Z"/><path class="cls-2" d="M67.67,71.94a1.45,1.45,0,1,1,0,2.88c-1,0-1.65-.64-1.62-1.46A1.5,1.5,0,0,1,67.67,71.94Z"/><path class="cls-2" d="M67.67,107.77a1.52,1.52,0,0,1-1.64-1.4,1.56,1.56,0,0,1,1.64-1.45c1,0,1.66.65,1.65,1.44A1.46,1.46,0,0,1,67.67,107.77Z"/><path class="cls-2" d="M67.65,47.34A1.5,1.5,0,0,1,66,45.88a1.47,1.47,0,0,1,1.67-1.38c.92,0,1.7.67,1.63,1.43A1.56,1.56,0,0,1,67.65,47.34Z"/><path class="cls-2" d="M67.65,55.48c.9,0,1.74.66,1.68,1.42a1.52,1.52,0,0,1-1.66,1.43,1.44,1.44,0,1,1,0-2.85Z"/><path class="cls-2" d="M67.68,69.29A1.47,1.47,0,0,1,66,67.89a1.49,1.49,0,0,1,1.64-1.43,1.48,1.48,0,0,1,1.64,1.43C69.32,68.6,68.86,69.28,67.68,69.29Z"/><path class="cls-2" d="M67.67,126.92c1,0,1.63.57,1.64,1.39s-.69,1.43-1.67,1.47a1.53,1.53,0,0,1-1.6-1.49A1.51,1.51,0,0,1,67.67,126.92Z"/><path class="cls-2" d="M67.69,61a1.45,1.45,0,0,1,1.63,1.42,1.57,1.57,0,0,1-1.67,1.42A1.6,1.6,0,0,1,66,62.36,1.5,1.5,0,0,1,67.69,61Z"/><path class="cls-2" d="M70.88,132.28c-1.18,0-1.7-.38-1.7-1.21a1.59,1.59,0,0,1,1.63-1.43c.75,0,1.69.62,1.64,1.44S72,132.28,70.88,132.28Z"/><path class="cls-2" d="M64.54,94A1.44,1.44,0,0,1,63,92.61c0-.82.62-1.32,1.54-1.38a1.54,1.54,0,0,1,1.64,1.39A1.5,1.5,0,0,1,64.54,94Z"/><path class="cls-2" d="M63,125.57a1.51,1.51,0,0,1,1.55-1.39,1.57,1.57,0,0,1,1.62,1.42,1.53,1.53,0,0,1-1.6,1.38A1.47,1.47,0,0,1,63,125.57Z"/><path class="cls-2" d="M64.56,69.25a1.41,1.41,0,0,1,1.54,1.4c0,.81-.63,1.35-1.59,1.36A1.41,1.41,0,0,1,63,70.58,1.49,1.49,0,0,1,64.56,69.25Z"/><path class="cls-2" d="M63,76.15a1.45,1.45,0,0,1,1.57-1.4,1.5,1.5,0,0,1,1.59,1.38,1.59,1.59,0,0,1-3.16,0Z"/><path class="cls-2" d="M64.46,85.74c1.09.08,1.61.52,1.64,1.4a1.48,1.48,0,0,1-1.58,1.4A1.52,1.52,0,0,1,63,87.11,1.44,1.44,0,0,1,64.46,85.74Z"/><path class="cls-2" d="M63,54.16a1.46,1.46,0,0,1,1.52-1.39,1.4,1.4,0,1,1,0,2.76A1.41,1.41,0,0,1,63,54.16Z"/><path class="cls-2" d="M64.55,47.3a1.43,1.43,0,0,1,1.56,1.38A1.45,1.45,0,0,1,64.59,50,1.5,1.5,0,0,1,63,48.66,1.47,1.47,0,0,1,64.55,47.3Z"/><path class="cls-2" d="M64.58,61A1.48,1.48,0,0,1,63,59.7a1.44,1.44,0,0,1,1.53-1.43,1.52,1.52,0,0,1,1.63,1.35A1.49,1.49,0,0,1,64.58,61Z"/><path class="cls-2" d="M64.54,121.45A1.41,1.41,0,0,1,63,120.12a1.46,1.46,0,0,1,1.55-1.41,1.48,1.48,0,0,1,1.61,1.39A1.45,1.45,0,0,1,64.54,121.45Z"/><path class="cls-2" d="M64.52,107.72a1.48,1.48,0,0,1,1.6,1.41,1.5,1.5,0,0,1-1.61,1.36,1.39,1.39,0,1,1,0-2.77Z"/><path class="cls-2" d="M64.5,44.54A1.44,1.44,0,0,1,63,43.14a1.58,1.58,0,0,1,3.14,0A1.44,1.44,0,0,1,64.5,44.54Z"/><path class="cls-2" d="M63,81.61a1.43,1.43,0,0,1,1.58-1.34c1,0,1.54.59,1.57,1.39A1.54,1.54,0,0,1,64.45,83,1.51,1.51,0,0,1,63,81.61Z"/><path class="cls-2" d="M64.49,99.47A1.39,1.39,0,0,1,63,98.11c0-.83.6-1.34,1.58-1.34s1.59.55,1.56,1.33S65.59,99.47,64.49,99.47Z"/><path class="cls-2" d="M64.53,102.26a1.38,1.38,0,0,1,1.58,1.35c0,.78-.67,1.35-1.59,1.35a1.36,1.36,0,1,1,0-2.7Z"/><path class="cls-2" d="M64.51,116A1.44,1.44,0,0,1,63,114.6a1.41,1.41,0,0,1,1.57-1.37,1.38,1.38,0,1,1,0,2.73Z"/><path class="cls-2" d="M64.5,66.5A1.43,1.43,0,0,1,63,65.13a1.46,1.46,0,0,1,1.61-1.34,1.45,1.45,0,0,1,1.54,1.37A1.43,1.43,0,0,1,64.5,66.5Z"/><path class="cls-2" d="M63,84.4c0,.67-.73,1.32-1.82,1.34A1.51,1.51,0,0,1,59.8,84.4,1.49,1.49,0,0,1,61.12,83C62.39,83.06,62.82,83.59,63,84.4Z"/><path class="cls-2" d="M61.39,96.7a1.4,1.4,0,0,1-1.53-1.32A1.45,1.45,0,0,1,61.36,94a1.36,1.36,0,1,1,0,2.69Z"/><path class="cls-2" d="M61.4,88.52A1.48,1.48,0,0,1,63,89.92a1.52,1.52,0,0,1-1.61,1.29,1.43,1.43,0,0,1-1.49-1.34A1.41,1.41,0,0,1,61.4,88.52Z"/><path class="cls-2" d="M61.38,72a1.36,1.36,0,1,1,0,2.69,1.45,1.45,0,0,1-1.51-1.31A1.42,1.42,0,0,1,61.38,72Z"/><path class="cls-2" d="M61.4,121.52a1.35,1.35,0,1,1,0,2.67,1.43,1.43,0,0,1-1.51-1.37A1.37,1.37,0,0,1,61.4,121.52Z"/><path class="cls-2" d="M61.41,80.21a1.4,1.4,0,0,1-1.55-1.33,1.52,1.52,0,0,1,1.51-1.38A1.62,1.62,0,0,1,63,78.84,1.49,1.49,0,0,1,61.41,80.21Z"/><path class="cls-2" d="M61.41,58.24a1.44,1.44,0,0,1-1.56-1.35,1.4,1.4,0,0,1,1.51-1.31,1.35,1.35,0,1,1,0,2.66Z"/><path class="cls-2" d="M59.86,51.39a1.39,1.39,0,0,1,1.5-1.3A1.45,1.45,0,0,1,63,51.4a1.49,1.49,0,0,1-1.59,1.34A1.42,1.42,0,0,1,59.86,51.39Z"/><path class="cls-2" d="M61.38,118.69a1.36,1.36,0,1,1,0-2.69A1.42,1.42,0,0,1,63,117.37,1.45,1.45,0,0,1,61.38,118.69Z"/><path class="cls-2" d="M59.86,67.88a1.43,1.43,0,0,1,1.54-1.32A1.46,1.46,0,0,1,63,67.92a1.56,1.56,0,0,1-1.59,1.32A1.46,1.46,0,0,1,59.86,67.88Z"/><path class="cls-2" d="M59.86,100.85a1.56,1.56,0,1,1,1.52,1.34A1.4,1.4,0,0,1,59.86,100.85Z"/><path class="cls-2" d="M59.86,45.93a1.49,1.49,0,0,1,1.5-1.38A1.55,1.55,0,0,1,63,45.89a1.43,1.43,0,0,1-1.59,1.33A1.38,1.38,0,0,1,59.86,45.93Z"/><path class="cls-2" d="M61.37,129.66a1.39,1.39,0,0,1-1.51-1.33A1.42,1.42,0,0,1,61.4,127a1.35,1.35,0,1,1,0,2.66Z"/><path class="cls-2" d="M61.34,113.17a1.38,1.38,0,0,1-1.48-1.35,1.49,1.49,0,0,1,1.52-1.33c.82,0,1.62.68,1.58,1.37A1.51,1.51,0,0,1,61.34,113.17Z"/><path class="cls-2" d="M61.37,105A1.44,1.44,0,0,1,63,106.37a1.56,1.56,0,0,1-3.09,0A1.38,1.38,0,0,1,61.37,105Z"/><path class="cls-2" d="M61.36,63.7a1.39,1.39,0,0,1-1.51-1.29,1.49,1.49,0,0,1,1.56-1.36A1.53,1.53,0,0,1,63,62.4,1.45,1.45,0,0,1,61.36,63.7Z"/><path class="cls-2" d="M67.68,41.74a1.42,1.42,0,0,1-1.51-1.31,1.53,1.53,0,0,1,3,0A1.41,1.41,0,0,1,67.68,41.74Z"/><path class="cls-2" d="M64.62,132.28c-1.1,0-1.61-.38-1.62-1.21a1.44,1.44,0,0,1,1.5-1.32A1.41,1.41,0,0,1,66,131.09C66,131.92,65.59,132.28,64.62,132.28Z"/><path class="cls-2" d="M58.24,50a1.44,1.44,0,0,1-1.49-1.3,1.48,1.48,0,0,1,1.52-1.32,1.51,1.51,0,0,1,1.48,1.32A1.47,1.47,0,0,1,58.24,50Z"/><path class="cls-2" d="M58.24,121.41a1.49,1.49,0,0,1-1.5-1.3,1.54,1.54,0,0,1,1.5-1.35,1.52,1.52,0,0,1,1.5,1.35A1.5,1.5,0,0,1,58.24,121.41Z"/><path class="cls-2" d="M58.23,99.4a1.37,1.37,0,0,1-1.48-1.28,1.35,1.35,0,0,1,1.5-1.3,1.3,1.3,0,1,1,0,2.58Z"/><path class="cls-2" d="M58.24,72a1.48,1.48,0,0,1-1.5-1.3,1.46,1.46,0,0,1,1.51-1.31,1.48,1.48,0,0,1,1.5,1.32A1.51,1.51,0,0,1,58.24,72Z"/><path class="cls-2" d="M58.22,104.92a1.43,1.43,0,0,1-1.47-1.35,1.41,1.41,0,0,1,1.51-1.25c1,0,1.43.54,1.47,1.29A1.4,1.4,0,0,1,58.22,104.92Z"/><path class="cls-2" d="M59.75,81.62a1.51,1.51,0,0,1-1.52,1.32,1.48,1.48,0,0,1-1.49-1.33,1.46,1.46,0,0,1,1.51-1.28A1.49,1.49,0,0,1,59.75,81.62Z"/><path class="cls-2" d="M58.25,126.88a1.3,1.3,0,1,1,0-2.58,1.3,1.3,0,1,1,0,2.58Z"/><path class="cls-2" d="M58.25,52.88a1.33,1.33,0,0,1,1.48,1.3,1.44,1.44,0,0,1-1.49,1.28,1.41,1.41,0,0,1-1.48-1.32A1.34,1.34,0,0,1,58.25,52.88Z"/><path class="cls-2" d="M58.26,63.83a1.32,1.32,0,1,1-1.52,1.32A1.52,1.52,0,0,1,58.26,63.83Z"/><path class="cls-2" d="M58.21,77.42a1.38,1.38,0,0,1-1.46-1.3,1.4,1.4,0,0,1,1.55-1.27,1.3,1.3,0,1,1-.09,2.57Z"/><path class="cls-2" d="M58.24,113.29a1.32,1.32,0,1,1-1.49,1.32A1.46,1.46,0,0,1,58.24,113.29Z"/><path class="cls-2" d="M58.13,88.43a1.47,1.47,0,0,1-1.38-1.33,1.49,1.49,0,0,1,3,0A1.47,1.47,0,0,1,58.13,88.43Z"/><path class="cls-2" d="M58.24,110.37a1.37,1.37,0,0,1-1.49-1.27,1.51,1.51,0,0,1,3,0A1.35,1.35,0,0,1,58.24,110.37Z"/><path class="cls-2" d="M58.25,41.88a1.38,1.38,0,0,1,1.48,1.28,1.33,1.33,0,0,1-1.48,1.28,1.3,1.3,0,1,1,0-2.56Z"/><path class="cls-2" d="M58.24,93.87a1.32,1.32,0,0,1-1.49-1.26,1.38,1.38,0,0,1,1.49-1.27,1.39,1.39,0,0,1,1.5,1.27A1.34,1.34,0,0,1,58.24,93.87Z"/><path class="cls-2" d="M58.28,60.91a1.34,1.34,0,0,1-1.53-1.26,1.4,1.4,0,0,1,1.48-1.28,1.43,1.43,0,0,1,1.51,1.26A1.36,1.36,0,0,1,58.28,60.91Z"/><path class="cls-2" d="M55.1,47.14a1.33,1.33,0,0,1-1.44-1.25,1.31,1.31,0,0,1,1.45-1.21,1.24,1.24,0,1,1,0,2.46Z"/><path class="cls-2" d="M55.07,124.08a1.25,1.25,0,1,1,0-2.48,1.39,1.39,0,0,1,1.44,1.24A1.35,1.35,0,0,1,55.07,124.08Z"/><path class="cls-2" d="M53.66,100.86a1.35,1.35,0,0,1,1.42-1.24,1.4,1.4,0,0,1,1.46,1.22,1.43,1.43,0,0,1-1.45,1.28A1.37,1.37,0,0,1,53.66,100.86Z"/><path class="cls-2" d="M55.08,77.64a1.26,1.26,0,1,1,0,2.49c-.89,0-1.43-.56-1.44-1.27A1.33,1.33,0,0,1,55.08,77.64Z"/><path class="cls-2" d="M55,85.62a1.24,1.24,0,0,1-1.31-1.22,1.44,1.44,0,0,1,2.86,0A1.35,1.35,0,0,1,55,85.62Z"/><path class="cls-2" d="M55.07,91.07a1.27,1.27,0,0,1-1.41-1.21,1.45,1.45,0,0,1,1.39-1.28,1.37,1.37,0,0,1,1.48,1.36A1.32,1.32,0,0,1,55.07,91.07Z"/><path class="cls-2" d="M55.1,52.63a1.29,1.29,0,0,1-1.44-1.23,1.33,1.33,0,0,1,1.42-1.23c.79,0,1.51.58,1.45,1.24A1.29,1.29,0,0,1,55.1,52.63Z"/><path class="cls-2" d="M55.08,94.14a1.29,1.29,0,0,1,1.45,1.23,1.32,1.32,0,0,1-1.43,1.22,1.24,1.24,0,1,1,0-2.45Z"/><path class="cls-2" d="M53.66,117.32a1.37,1.37,0,0,1,1.43-1.23,1.4,1.4,0,0,1,1.44,1.28,1.46,1.46,0,0,1-1.45,1.24A1.38,1.38,0,0,1,53.66,117.32Z"/><path class="cls-2" d="M55.11,74.61a1.31,1.31,0,0,1-1.45-1.2,1.45,1.45,0,0,1,2.87,0A1.28,1.28,0,0,1,55.11,74.61Z"/><path class="cls-2" d="M55.11,61.17a1.31,1.31,0,0,1,1.42,1.23,1.37,1.37,0,0,1-1.46,1.24,1.34,1.34,0,0,1-1.41-1.25A1.3,1.3,0,0,1,55.11,61.17Z"/><path class="cls-2" d="M55.11,69.12a1.32,1.32,0,0,1-1.45-1.23,1.4,1.4,0,0,1,1.45-1.26c.72,0,1.46.63,1.42,1.26A1.31,1.31,0,0,1,55.11,69.12Z"/><path class="cls-2" d="M55.06,58.11a1.27,1.27,0,0,1-1.4-1.26,1.47,1.47,0,0,1,2.88,0A1.31,1.31,0,0,1,55.06,58.11Z"/><path class="cls-2" d="M55.14,110.64a1.32,1.32,0,0,1,1.4,1.22,1.42,1.42,0,0,1-1.45,1.24,1.38,1.38,0,0,1-1.43-1.27A1.31,1.31,0,0,1,55.14,110.64Z"/><path class="cls-2" d="M55.09,107.58a1.33,1.33,0,0,1-1.43-1.21,1.3,1.3,0,0,1,1.41-1.23,1.33,1.33,0,0,1,1.46,1.2A1.32,1.32,0,0,1,55.09,107.58Z"/><path class="cls-2" d="M55.13,127.14a1.29,1.29,0,0,1,1.41,1.18,1.35,1.35,0,0,1-1.47,1.23,1.31,1.31,0,0,1-1.41-1.22C53.66,127.61,54.25,127.14,55.13,127.14Z"/><path class="cls-2" d="M59.62,131.07c0,.75-.53,1.21-1.38,1.21a1.28,1.28,0,0,1-1.39-1.17,1.24,1.24,0,0,1,1.39-1.26C58.9,129.85,59.65,130.16,59.62,131.07Z"/><path class="cls-2" d="M50.63,48.66A1.2,1.2,0,0,1,52,47.47a1.27,1.27,0,0,1,1.36,1.19A1.26,1.26,0,0,1,52,49.84,1.19,1.19,0,0,1,50.63,48.66Z"/><path class="cls-2" d="M50.63,120.08c-.08-.68.62-1.17,1.33-1.19a1.3,1.3,0,0,1,1.35,1.21,1.23,1.23,0,0,1-1.37,1.16C51.12,121.25,50.63,120.82,50.63,120.08Z"/><path class="cls-2" d="M51.93,55.31c-.83,0-1.3-.42-1.3-1.17A1.18,1.18,0,0,1,52,53a1.27,1.27,0,0,1,1.35,1.19A1.22,1.22,0,0,1,51.93,55.31Z"/><path class="cls-2" d="M50.63,98.08A1.19,1.19,0,0,1,52,96.94a1.24,1.24,0,0,1,1.32,1.17A1.27,1.27,0,0,1,52,99.3,1.19,1.19,0,0,1,50.63,98.08Z"/><path class="cls-2" d="M50.63,70.63c0-.75.53-1.13,1.32-1.17a1.19,1.19,0,1,1,0,2.35C51.24,71.84,50.53,71.31,50.63,70.63Z"/><path class="cls-2" d="M52,88.31a1.32,1.32,0,0,1-1.41-1.16A1.35,1.35,0,1,1,52,88.31Z"/><path class="cls-2" d="M50.63,103.57c-.08-.61.56-1.14,1.31-1.15a1.3,1.3,0,0,1,1.37,1.18A1.23,1.23,0,0,1,52,104.77C51.11,104.77,50.63,104.33,50.63,103.57Z"/><path class="cls-2" d="M50.63,81.64c0-.74.49-1.15,1.32-1.17a1.18,1.18,0,0,1,1.35,1.16A1.25,1.25,0,0,1,52,82.82,1.2,1.2,0,0,1,50.63,81.64Z"/><path class="cls-2" d="M51.94,75c.81,0,1.41.48,1.36,1.16a1.2,1.2,0,0,1-1.36,1.16c-.85,0-1.34-.5-1.32-1.17S51.08,75,51.94,75Z"/><path class="cls-2" d="M60.07,40.42a1.19,1.19,0,0,1,1.34-1.17,1.27,1.27,0,0,1,1.35,1.19,1.29,1.29,0,0,1-1.4,1.15A1.19,1.19,0,0,1,60.07,40.42Z"/><path class="cls-2" d="M52,91.46a1.23,1.23,0,0,1,1.34,1.14A1.25,1.25,0,0,1,52,93.78c-.82,0-1.32-.42-1.33-1.11S51.07,91.46,52,91.46Z"/><path class="cls-2" d="M52,126.72c-.88,0-1.3-.38-1.33-1.16s.64-1.14,1.36-1.15a1.25,1.25,0,0,1,1.32,1.16A1.18,1.18,0,0,1,52,126.72Z"/><path class="cls-2" d="M50.63,65.14A1.17,1.17,0,0,1,52,64a1.25,1.25,0,0,1,1.35,1.18A1.29,1.29,0,0,1,52,66.32,1.21,1.21,0,0,1,50.63,65.14Z"/><path class="cls-2" d="M50.63,114.61c0-.73.48-1.15,1.29-1.18a1.25,1.25,0,0,1,1.39,1.18A1.27,1.27,0,0,1,52,115.77,1.19,1.19,0,0,1,50.63,114.61Z"/><path class="cls-2" d="M52,58.52c.82,0,1.4.49,1.34,1.16a1.22,1.22,0,0,1-1.36,1.15,1.17,1.17,0,0,1-1.31-1.26C50.67,58.88,51.12,58.51,52,58.52Z"/><path class="cls-2" d="M50.63,109.07c0-.71.5-1.12,1.36-1.12a1.17,1.17,0,1,1,0,2.31C51.26,110.24,50.61,110,50.63,109.07Z"/><path class="cls-2" d="M50.63,43.13c0-.73.49-1.1,1.35-1.12a1.24,1.24,0,0,1,1.33,1.16,1.27,1.27,0,0,1-1.39,1.16C51.21,44.3,50.56,43.93,50.63,43.13Z"/><path class="cls-2" d="M48.79,83.2a1.4,1.4,0,0,1,1.35,1.19,1.43,1.43,0,0,1-1.37,1.16,1.18,1.18,0,1,1,0-2.35Z"/><path class="cls-2" d="M48.78,47.06a1.15,1.15,0,1,1,.06-2.28,1.15,1.15,0,1,1-.06,2.28Z"/><path class="cls-2" d="M50.11,128.33a1.3,1.3,0,0,1-1.34,1.17,1.37,1.37,0,0,1-1.3-1.18,1.33,1.33,0,0,1,1.33-1.13A1.26,1.26,0,0,1,50.11,128.33Z"/><path class="cls-2" d="M48.79,121.7a1.22,1.22,0,0,1,1.32,1.12,1.33,1.33,0,1,1-1.32-1.12Z"/><path class="cls-2" d="M48.83,96.51a1.34,1.34,0,0,1-1.36-1.11,1.3,1.3,0,0,1,1.32-1.17,1.15,1.15,0,1,1,0,2.28Z"/><path class="cls-2" d="M50.11,78.86A1.25,1.25,0,0,1,48.85,80a1.29,1.29,0,0,1-1.37-1.14,1.27,1.27,0,0,1,1.29-1.15A1.3,1.3,0,0,1,50.11,78.86Z"/><path class="cls-2" d="M50.11,73.38a1.28,1.28,0,0,1-1.29,1.16,1.17,1.17,0,1,1,0-2.32A1.27,1.27,0,0,1,50.11,73.38Z"/><path class="cls-2" d="M48.77,52.53a1.23,1.23,0,0,1-1.29-1.13,1.27,1.27,0,0,1,1.38-1.14,1.25,1.25,0,0,1,1.25,1.14A1.21,1.21,0,0,1,48.77,52.53Z"/><path class="cls-2" d="M50.11,106.39a1.32,1.32,0,0,1-1.33,1.13c-.63,0-1.34-.63-1.3-1.17a1.22,1.22,0,0,1,1.36-1.12A1.18,1.18,0,0,1,50.11,106.39Z"/><path class="cls-2" d="M50.11,56.89a1.28,1.28,0,0,1-1.28,1.17,1.17,1.17,0,1,1,0-2.31A1.28,1.28,0,0,1,50.11,56.89Z"/><path class="cls-2" d="M48.77,88.69a1.32,1.32,0,0,1,1.34,1.17A1.28,1.28,0,0,1,48.8,91a1.35,1.35,0,0,1-1.33-1.1C47.46,89.45,48.12,88.61,48.77,88.69Z"/><path class="cls-2" d="M48.78,102a1.14,1.14,0,1,1,0-2.24,1.13,1.13,0,1,1,0,2.24Z"/><path class="cls-2" d="M48.8,118.48a1.3,1.3,0,0,1-1.33-1.12,1.27,1.27,0,0,1,1.35-1.14,1.22,1.22,0,0,1,1.29,1.13A1.25,1.25,0,0,1,48.8,118.48Z"/><path class="cls-2" d="M48.8,66.76a1.23,1.23,0,0,1,1.31,1.15,1.22,1.22,0,0,1-1.3,1.1,1.2,1.2,0,0,1-1.33-1.1A1.22,1.22,0,0,1,48.8,66.76Z"/><path class="cls-2" d="M50.11,111.86A1.28,1.28,0,0,1,48.76,113a1.16,1.16,0,1,1,.06-2.3A1.26,1.26,0,0,1,50.11,111.86Z"/><path class="cls-2" d="M48.81,63.52a1.27,1.27,0,0,1-1.34-1.11,1.33,1.33,0,0,1,1.32-1.15,1.28,1.28,0,0,1,1.32,1.13A1.21,1.21,0,0,1,48.81,63.52Z"/><path class="cls-2" d="M51.93,132.15a1.17,1.17,0,0,1-1.25-1.07A1.22,1.22,0,0,1,52,130a1.18,1.18,0,0,1,1.22,1.14A1.1,1.1,0,0,1,51.93,132.15Z"/><path class="cls-2" d="M45.63,99.19a1.18,1.18,0,0,1-1.22-1.07A1.16,1.16,0,0,1,45.65,97a1.09,1.09,0,1,1,0,2.15Z"/><path class="cls-2" d="M44.42,92.6a1.25,1.25,0,0,1,1.23-1.09,1.12,1.12,0,1,1,0,2.21A1.23,1.23,0,0,1,44.42,92.6Z"/><path class="cls-2" d="M44.42,76.12a1.18,1.18,0,0,1,1.24-1.07,1.22,1.22,0,0,1,1.25,1.09,1.26,1.26,0,0,1-1.26,1.09A1.22,1.22,0,0,1,44.42,76.12Z"/><path class="cls-2" d="M45.67,124.49a1.11,1.11,0,1,1,0,2.19,1.21,1.21,0,0,1-1.22-1.1A1.25,1.25,0,0,1,45.67,124.49Z"/><path class="cls-2" d="M44.41,54.16a1.2,1.2,0,0,1,1.26-1.08,1.23,1.23,0,0,1,1.24,1.07,1.28,1.28,0,0,1-1.25,1.11A1.25,1.25,0,0,1,44.41,54.16Z"/><path class="cls-2" d="M45.65,86.06a1.33,1.33,0,0,1,1.29,1.08,1.21,1.21,0,0,1-1.08,1.07c-.87,0-1.45-.46-1.46-1.17A1.14,1.14,0,0,1,45.65,86.06Z"/><path class="cls-2" d="M55.09,39.36a1.17,1.17,0,0,1,1.25,1.07,1.27,1.27,0,0,1-2.5,0A1.16,1.16,0,0,1,55.09,39.36Z"/><path class="cls-2" d="M45.68,102.54a1.23,1.23,0,0,1,1.23,1.07,1.27,1.27,0,0,1-1.26,1.09,1.19,1.19,0,0,1-1.23-1.14A1.18,1.18,0,0,1,45.68,102.54Z"/><path class="cls-2" d="M45.65,119a1.08,1.08,0,1,1,0,2.14,1.15,1.15,0,0,1-1.25-1.06A1.17,1.17,0,0,1,45.65,119Z"/><path class="cls-2" d="M45.64,82.68a1.16,1.16,0,0,1-1.23-1,1.19,1.19,0,0,1,1.28-1.1,1.23,1.23,0,0,1,1.22,1.08A1.2,1.2,0,0,1,45.64,82.68Z"/><path class="cls-2" d="M45.66,69.57a1.21,1.21,0,0,1,1.25,1.08,1.27,1.27,0,0,1-1.24,1.08,1.25,1.25,0,0,1-1.26-1.08A1.19,1.19,0,0,1,45.66,69.57Z"/><path class="cls-2" d="M45.66,44.23a1.18,1.18,0,0,1-1.24-1,1.2,1.2,0,0,1,1.24-1.12,1.26,1.26,0,0,1,1.25,1.07A1.21,1.21,0,0,1,45.66,44.23Z"/><path class="cls-2" d="M44.41,109.1a1.26,1.26,0,0,1,2.5,0,1.25,1.25,0,0,1-1.26,1.08A1.23,1.23,0,0,1,44.41,109.1Z"/><path class="cls-2" d="M45.64,49.71a1.14,1.14,0,0,1-1.23-1,1.18,1.18,0,0,1,1.26-1.08,1.23,1.23,0,0,1,1.24,1.06A1.2,1.2,0,0,1,45.64,49.71Z"/><path class="cls-2" d="M45.65,60.73a1.22,1.22,0,0,1-1.23-1.09,1.17,1.17,0,0,1,1.21-1.07,1.09,1.09,0,1,1,0,2.16Z"/><path class="cls-2" d="M45.69,64.1a1.19,1.19,0,0,1,1.22,1.06,1.25,1.25,0,0,1-1.29,1,1.2,1.2,0,0,1-1.21-1.08A1.13,1.13,0,0,1,45.69,64.1Z"/><path class="cls-2" d="M45.68,115.64a1.13,1.13,0,0,1-1.26-1,1.26,1.26,0,0,1,1.23-1.11,1.31,1.31,0,0,1,1.26,1.1A1.18,1.18,0,0,1,45.68,115.64Z"/><path class="cls-2" d="M41.36,56.86a1.06,1.06,0,0,1,1.2-1,1.18,1.18,0,0,1,1.14,1,1.22,1.22,0,0,1-1.18,1C42,57.94,41.29,57.54,41.36,56.86Z"/><path class="cls-2" d="M41.36,95.34a1.15,1.15,0,0,1,1.15-1,1.27,1.27,0,0,1,1.2,1.07,1.17,1.17,0,0,1-1.2,1A1,1,0,0,1,41.36,95.34Z"/><path class="cls-2" d="M41.36,122.84a1.07,1.07,0,0,1,1.16-1,1.21,1.21,0,0,1,1.19,1,1.25,1.25,0,0,1-1.19,1.07A1.14,1.14,0,0,1,41.36,122.84Z"/><path class="cls-2" d="M42.52,50.39a1.14,1.14,0,0,1,1.18,1,1.21,1.21,0,0,1-1.21,1.07,1.12,1.12,0,0,1-1.13-1.09A1.07,1.07,0,0,1,42.52,50.39Z"/><path class="cls-2" d="M42.49,63.4a1,1,0,0,1-1.13-1,1.11,1.11,0,0,1,1.14-1,1.21,1.21,0,0,1,1.21,1A1.16,1.16,0,0,1,42.49,63.4Z"/><path class="cls-2" d="M42.52,79.88c-.71,0-1.16-.39-1.16-1a1.11,1.11,0,0,1,1.15-1,1.18,1.18,0,0,1,1.19,1A1.12,1.12,0,0,1,42.52,79.88Z"/><path class="cls-2" d="M42.52,72.36a1,1,0,1,1,0,2,1,1,0,0,1-1.13-1.06A1.06,1.06,0,0,1,42.52,72.36Z"/><path class="cls-2" d="M41.36,45.89a1.17,1.17,0,0,1,1.15-1,1.27,1.27,0,0,1,1.2,1.06,1.17,1.17,0,0,1-1.24,1A1,1,0,0,1,41.36,45.89Z"/><path class="cls-2" d="M41.36,128.33a1.12,1.12,0,0,1,1.13-1,1.25,1.25,0,0,1,1.22,1,1.18,1.18,0,0,1-1.23,1A1,1,0,0,1,41.36,128.33Z"/><path class="cls-2" d="M42.58,88.86a1,1,0,0,1,1.11,1c.07.46-.56,1-1.12,1a1.09,1.09,0,0,1-1.2-.94C41.34,89.27,41.77,88.89,42.58,88.86Z"/><path class="cls-2" d="M42.51,66.91a1.12,1.12,0,0,1,1.2,1,1.16,1.16,0,0,1-1.21,1,1.1,1.1,0,0,1-1.14-1A1,1,0,0,1,42.51,66.91Z"/><path class="cls-2" d="M41.37,100.84a1,1,0,0,1,1.15-1,1.06,1.06,0,0,1,1.17,1c0,.55-.59,1-1.22,1S41.26,101.33,41.37,100.84Z"/><path class="cls-2" d="M42.5,105.37a1.12,1.12,0,0,1,1.2,1,1.23,1.23,0,0,1-1.18,1,1.12,1.12,0,0,1-1.16-1C41.35,105.75,41.77,105.37,42.5,105.37Z"/><path class="cls-2" d="M41.36,111.85a1.08,1.08,0,0,1,1.17-1,1.18,1.18,0,0,1,1.18,1,1.22,1.22,0,0,1-1.17,1C41.84,112.82,41.36,112.44,41.36,111.85Z"/><path class="cls-2" d="M42.58,85.34c-.79,0-1.21-.33-1.21-1a1,1,0,0,1,1.15-1,1.18,1.18,0,0,1,1.2,1C43.74,85,43.26,85.34,42.58,85.34Z"/><path class="cls-2" d="M42.5,118.35a1,1,0,1,1,0-2,1,1,0,1,1,0,2Z"/><path class="cls-2" d="M48.81,41.41a1,1,0,1,1,0-2,1,1,0,1,1,0,2Z"/><path class="cls-2" d="M39.34,115.53a1,1,0,0,1-1.05-.94,1,1,0,0,1,1.09-1c.55,0,1.13.5,1.08,1A1,1,0,0,1,39.34,115.53Z"/><path class="cls-2" d="M39.38,99.06a1.05,1.05,0,0,1-1.11-1,1.14,1.14,0,0,1,1.09-1,1.18,1.18,0,0,1,1.11,1A1,1,0,0,1,39.38,99.06Z"/><path class="cls-2" d="M39.36,93.58a1,1,0,0,1-1.07-1,1,1,0,0,1,1.06-.94,1,1,0,1,1,0,1.92Z"/><path class="cls-2" d="M40.47,81.64a1,1,0,0,1-1.12.93,1,1,0,0,1-1.06-1,1,1,0,0,1,1.08-.93A1.08,1.08,0,0,1,40.47,81.64Z"/><path class="cls-2" d="M40.47,54.14a1.14,1.14,0,0,1-1.1,1,1.08,1.08,0,0,1-1.09-1,1,1,0,0,1,1.06-.94A1,1,0,0,1,40.47,54.14Z"/><path class="cls-2" d="M39.41,124.64a1,1,0,0,1,1.06,1,1.08,1.08,0,0,1-1.17,1,1,1,0,0,1-1-1A1.07,1.07,0,0,1,39.41,124.64Z"/><path class="cls-2" d="M39.37,77.08a1,1,0,0,1-1.09-1,1.07,1.07,0,0,1,1.09-1,1.11,1.11,0,0,1,1.1,1A1,1,0,0,1,39.37,77.08Z"/><path class="cls-2" d="M39.37,102.67a1,1,0,0,1,1.1,1,1.15,1.15,0,0,1-1.13,1,1,1,0,0,1-1.05-1A1,1,0,0,1,39.37,102.67Z"/><path class="cls-2" d="M40.47,70.64a1.11,1.11,0,0,1-1.12,1,1,1,0,0,1-1.07-.94,1,1,0,0,1,1-1A1.05,1.05,0,0,1,40.47,70.64Z"/><path class="cls-2" d="M39.39,49.62a1,1,0,0,1-1.11-.95,1,1,0,0,1,1-1,1,1,0,1,1,.06,1.9Z"/><path class="cls-2" d="M39.35,119.17a1,1,0,0,1,1.11.91c0,.51-.49,1-1.09,1a1,1,0,0,1-1.09-1A1,1,0,0,1,39.35,119.17Z"/><path class="cls-2" d="M39.34,60.58a1,1,0,0,1-1.05-.93,1,1,0,0,1,1.05-.95,1.06,1.06,0,0,1,1.13.95A1,1,0,0,1,39.34,60.58Z"/><path class="cls-2" d="M39.38,64.17a1.12,1.12,0,0,1,1.09,1,1.07,1.07,0,0,1-1.15.91,1,1,0,0,1-1-1A1.06,1.06,0,0,1,39.38,64.17Z"/><path class="cls-2" d="M39.38,110.05a1,1,0,0,1-1.1-1,1,1,0,0,1,1.07-.93,1.07,1.07,0,0,1,1.12.94A1.09,1.09,0,0,1,39.38,110.05Z"/><path class="cls-2" d="M39.34,44.08a1,1,0,0,1-1.06-.93,1.07,1.07,0,0,1,1.07-.95c.57,0,1.17.48,1.11,1A1,1,0,0,1,39.34,44.08Z"/><path class="cls-2" d="M39.33,86.2a1,1,0,0,1,1.14.91,1.15,1.15,0,0,1-1.11,1,1.1,1.1,0,0,1-1.08-1A1,1,0,0,1,39.33,86.2Z"/><path class="cls-2" d="M45.64,132a1,1,0,0,1-1-.92,1.08,1.08,0,0,1,2.14,0A1,1,0,0,1,45.64,132Z"/><path class="cls-2" d="M36.19,57.78a.88.88,0,1,1,0-1.75.89.89,0,1,1,0,1.75Z"/><path class="cls-2" d="M36.21,74.28a.93.93,0,0,1-1-.91,1,1,0,0,1,2,0C37.29,73.85,36.76,74.28,36.21,74.28Z"/><path class="cls-2" d="M36.21,122a.91.91,0,0,1,1,.85c.07.44-.51.93-1,.93a1,1,0,0,1-1-.91A.91.91,0,0,1,36.21,122Z"/><path class="cls-2" d="M36.18,129.2a.9.9,0,0,1-1-.9,1,1,0,0,1,1-.86c.48,0,1,.47,1,.89A.93.93,0,0,1,36.18,129.2Z"/><path class="cls-2" d="M36.2,107.24a.94.94,0,0,1-1-.9.92.92,0,0,1,1-.86.9.9,0,0,1,1,.89A1,1,0,0,1,36.2,107.24Z"/><path class="cls-2" d="M36.21,46.79a1,1,0,0,1-1-.89,1,1,0,0,1,1-.89,1.06,1.06,0,0,1,1,.91A1,1,0,0,1,36.21,46.79Z"/><path class="cls-2" d="M36.19,96.22c-.61,0-1-.35-1-.88a1,1,0,0,1,1-.87,1,1,0,0,1,1,.92A.92.92,0,0,1,36.19,96.22Z"/><path class="cls-2" d="M36.23,116.43a1.08,1.08,0,0,1,1,.92,1,1,0,0,1-1,.89,1,1,0,0,1-1-.91A1,1,0,0,1,36.23,116.43Z"/><path class="cls-2" d="M36.21,50.55a1,1,0,0,1,1,.85,1.07,1.07,0,0,1-1,.91,1,1,0,0,1-1-.89A.9.9,0,0,1,36.21,50.55Z"/><path class="cls-2" d="M36.21,68.79a1,1,0,0,1-1-.9c0-.57.44-.83,1-.89a1,1,0,0,1,1,.89A1.05,1.05,0,0,1,36.21,68.79Z"/><path class="cls-2" d="M36.23,101.73a.94.94,0,0,1-1-.86.92.92,0,0,1,1-.89.89.89,0,1,1,0,1.75Z"/><path class="cls-2" d="M36.18,79.75a.89.89,0,0,1-1-.9,1,1,0,0,1,1-.86c.51,0,1,.46,1,.89A.9.9,0,0,1,36.18,79.75Z"/><path class="cls-2" d="M36.2,89c.61,0,1.06.37,1,.88a1,1,0,0,1-1,.84.91.91,0,0,1-1-.85C35.2,89.38,35.6,89,36.2,89Z"/><path class="cls-2" d="M36.21,112.69c-.61,0-1-.34-1-.85a1,1,0,0,1,1-.88c.52,0,1.05.44,1,.89A.88.88,0,0,1,36.21,112.69Z"/><path class="cls-2" d="M36.23,63.25a.91.91,0,0,1-1-.85,1,1,0,0,1,1-.89,1,1,0,0,1,1,.91A1,1,0,0,1,36.23,63.25Z"/><path class="cls-2" d="M35.21,84.37a.9.9,0,0,1,1-.85,1,1,0,0,1,1,.85,1.07,1.07,0,0,1-1,.9A1,1,0,0,1,35.21,84.37Z"/><path class="cls-2" d="M42.51,41.28a.89.89,0,0,1-1-.87.9.9,0,0,1,1-.86,1,1,0,0,1,1,.86A1,1,0,0,1,42.51,41.28Z"/><path class="cls-2" d="M39.33,131.88a.81.81,0,1,1,0-1.61.87.87,0,0,1,1,.83C40.3,131.57,39.9,131.88,39.33,131.88Z"/><path class="cls-2" d="M34,48.66a.81.81,0,0,1-.86.81.89.89,0,0,1-1-.79.93.93,0,0,1,1-.85A.88.88,0,0,1,34,48.66Z"/><path class="cls-2" d="M34,65.14a.9.9,0,0,1-.91.83,1,1,0,0,1-1-.84,1,1,0,0,1,1-.81A.89.89,0,0,1,34,65.14Z"/><path class="cls-2" d="M34,114.6a.88.88,0,0,1-.91.82.83.83,0,1,1,0-1.65A.87.87,0,0,1,34,114.6Z"/><path class="cls-2" d="M34,76.14a.78.78,0,0,1-.88.8,1,1,0,0,1-1-.83,1,1,0,0,1,1-.8A.81.81,0,0,1,34,76.14Z"/><path class="cls-2" d="M34,81.63a.88.88,0,0,1-.91.82,1,1,0,0,1-1-.85,1,1,0,0,1,1-.81A.9.9,0,0,1,34,81.63Z"/><path class="cls-2" d="M34,98.09a.84.84,0,0,1-.89.83.94.94,0,0,1-1-.78,1,1,0,0,1,1-.86A.87.87,0,0,1,34,98.09Z"/><path class="cls-2" d="M34,120.07a.89.89,0,0,1-.91.87,1,1,0,0,1-.94-.83.93.93,0,0,1,1-.83A.85.85,0,0,1,34,120.07Z"/><path class="cls-2" d="M33.09,53.36a.78.78,0,0,1,.88.8.81.81,0,0,1-.9.81,1,1,0,0,1-1-.8A.89.89,0,0,1,33.09,53.36Z"/><path class="cls-2" d="M34,103.61a.87.87,0,0,1-.93.83,1,1,0,0,1-.92-.83.9.9,0,0,1,1-.79A.8.8,0,0,1,34,103.61Z"/><path class="cls-2" d="M33,126.4a.94.94,0,0,1-.89-.85.9.9,0,0,1,1-.76c.56,0,.89.32.87.82S33.59,126.41,33,126.4Z"/><path class="cls-2" d="M34,87.15a.85.85,0,0,1-.93.79.82.82,0,1,1,.05-1.62A.84.84,0,0,1,34,87.15Z"/><path class="cls-2" d="M34,43.18a.8.8,0,0,1-.9.79.91.91,0,0,1-.94-.8.93.93,0,0,1,.93-.81A.79.79,0,0,1,34,43.18Z"/><path class="cls-2" d="M34,70.63a.82.82,0,0,1-.88.83,1,1,0,0,1-1-.78.89.89,0,0,1,.9-.83A.82.82,0,0,1,34,70.63Z"/><path class="cls-2" d="M33.06,60.43a.88.88,0,0,1-.94-.78,1,1,0,0,1,.93-.82.83.83,0,0,1,.92.83C34,60.15,33.64,60.42,33.06,60.43Z"/><path class="cls-2" d="M33,93.42a.81.81,0,1,1,0-1.6.8.8,0,0,1,.89.84A.82.82,0,0,1,33,93.42Z"/><path class="cls-2" d="M33,109.9a.8.8,0,1,1,0-1.58c.57,0,.91.28.92.77S33.62,109.9,33,109.9Z"/><path class="cls-2" d="M36.2,41.13c-.52,0-.89-.32-.88-.73s.39-.72,1-.7a.74.74,0,0,1,.82.73C37.08,40.88,36.74,41.14,36.2,41.13Z"/><path class="cls-2" d="M30.74,95.37a.74.74,0,0,1-.82.72c-.49,0-.83-.29-.83-.71a.82.82,0,0,1,.86-.76A.76.76,0,0,1,30.74,95.37Z"/><path class="cls-2" d="M30.73,73.37a.74.74,0,0,1-.79.75.8.8,0,0,1-.85-.71c0-.43.32-.72.82-.73S30.73,72.93,30.73,73.37Z"/><path class="cls-2" d="M30.74,122.84a.77.77,0,0,1-.86.74.81.81,0,0,1-.79-.74.74.74,0,0,1,.83-.71A.72.72,0,0,1,30.74,122.84Z"/><path class="cls-2" d="M30.73,56.9a.73.73,0,0,1-.8.72.73.73,0,1,1,0-1.44A.73.73,0,0,1,30.73,56.9Z"/><path class="cls-2" d="M29.93,89.16a.71.71,0,0,1,.8.73.76.76,0,0,1-.82.72.81.81,0,0,1-.82-.75A.74.74,0,0,1,29.93,89.16Z"/><path class="cls-2" d="M30.73,84.35a.79.79,0,0,1-.78.77.85.85,0,0,1-.86-.73.77.77,0,0,1,.83-.74A.76.76,0,0,1,30.73,84.35Z"/><path class="cls-2" d="M30.73,128.37c0,.41-.31.67-.8.67s-.84-.29-.84-.7a.79.79,0,0,1,.83-.74A.75.75,0,0,1,30.73,128.37Z"/><path class="cls-2" d="M30.73,106.36a.73.73,0,0,1-.81.72.79.79,0,0,1-.83-.73.74.74,0,0,1,.84-.71A.71.71,0,0,1,30.73,106.36Z"/><path class="cls-2" d="M30.73,117.36a.72.72,0,0,1-.79.7.78.78,0,0,1-.85-.71.85.85,0,0,1,.84-.75A.78.78,0,0,1,30.73,117.36Z"/><path class="cls-2" d="M30.73,51.43a.81.81,0,0,1-.82.74.86.86,0,0,1-.82-.77.77.77,0,0,1,.84-.71A.74.74,0,0,1,30.73,51.43Z"/><path class="cls-2" d="M30.73,100.89a.78.78,0,0,1-.8.71.82.82,0,0,1-.84-.77.83.83,0,0,1,.82-.72A.78.78,0,0,1,30.73,100.89Z"/><path class="cls-2" d="M30.73,45.92a.73.73,0,0,1-.79.7.77.77,0,0,1-.85-.71.8.8,0,0,1,.84-.73C30.37,45.22,30.77,45.43,30.73,45.92Z"/><path class="cls-2" d="M29.91,79.58a.73.73,0,0,1-.82-.71.8.8,0,0,1,.85-.72.72.72,0,0,1,.79.74C30.73,79.33,30.43,79.58,29.91,79.58Z"/><path class="cls-2" d="M30.73,62.38a.75.75,0,0,1-.82.73.77.77,0,0,1-.82-.69.8.8,0,0,1,.82-.76A.75.75,0,0,1,30.73,62.38Z"/><path class="cls-2" d="M30.74,67.87a.76.76,0,0,1-.81.75.82.82,0,0,1-.84-.7.72.72,0,0,1,.78-.72C30.41,67.18,30.73,67.44,30.74,67.87Z"/><path class="cls-2" d="M30.73,111.87c0,.42-.28.66-.8.66s-.85-.25-.84-.69a.81.81,0,0,1,.8-.72A.74.74,0,0,1,30.73,111.87Z"/><path class="cls-2" d="M33.05,131.79a.78.78,0,0,1-.77-.74.77.77,0,0,1,.8-.67.73.73,0,0,1,.79.7C33.9,131.43,33.44,131.79,33.05,131.79Z"/><path class="cls-2" d="M26.75,75.49a.73.73,0,0,1,.75.61.64.64,0,0,1-.67.66.7.7,0,0,1-.79-.62A.73.73,0,0,1,26.75,75.49Z"/><path class="cls-2" d="M26.8,53.53a.66.66,0,0,1,.7.63.7.7,0,0,1-.72.64.73.73,0,0,1-.74-.67A.69.69,0,0,1,26.8,53.53Z"/><path class="cls-2" d="M26.78,103c.46,0,.72.21.72.59s-.36.61-.75.63a.69.69,0,0,1-.71-.63C26.05,103.24,26.33,103,26.78,103Z"/><path class="cls-2" d="M27.5,92.62a.67.67,0,0,1-.71.62.64.64,0,1,1,0-1.25A.66.66,0,0,1,27.5,92.62Z"/><path class="cls-2" d="M26.79,126.22a.74.74,0,0,1-.75-.61.72.72,0,0,1,.74-.67.68.68,0,0,1,.72.62A.67.67,0,0,1,26.79,126.22Z"/><path class="cls-2" d="M26.74,43.79a.69.69,0,0,1-.7-.65.77.77,0,0,1,.75-.62.7.7,0,0,1,.71.64C27.5,43.53,27.19,43.79,26.74,43.79Z"/><path class="cls-2" d="M26.75,109.72a.7.7,0,0,1-.71-.64.68.68,0,0,1,.76-.59c.43,0,.71.26.7.63A.68.68,0,0,1,26.75,109.72Z"/><path class="cls-2" d="M26.77,65.76c-.43,0-.74-.27-.72-.63a.64.64,0,0,1,.72-.57c.44,0,.73.23.73.59S27.21,65.76,26.77,65.76Z"/><path class="cls-2" d="M26.76,70c.44,0,.73.23.74.59a.64.64,0,0,1-.73.64.68.68,0,0,1-.73-.61A.68.68,0,0,1,26.76,70Z"/><path class="cls-2" d="M27.5,114.6a.66.66,0,0,1-.74.61.68.68,0,0,1-.72-.63.72.72,0,0,1,.75-.61A.66.66,0,0,1,27.5,114.6Z"/><path class="cls-2" d="M26.8,49.26c-.45,0-.74-.22-.75-.58a.74.74,0,0,1,1.45,0C27.52,49,27.26,49.25,26.8,49.26Z"/><path class="cls-2" d="M26.78,60.26a.69.69,0,0,1-.74-.61.73.73,0,0,1,.74-.63.68.68,0,0,1,.72.63A.64.64,0,0,1,26.78,60.26Z"/><path class="cls-2" d="M26.78,119.49c.44,0,.72.22.72.6a.65.65,0,0,1-.72.62.7.7,0,0,1-.74-.61C26,119.74,26.34,119.49,26.78,119.49Z"/><path class="cls-2" d="M26.8,98.71a.67.67,0,0,1-.76-.58.64.64,0,0,1,.72-.61c.46,0,.73.2.74.57S27.24,98.71,26.8,98.71Z"/><path class="cls-2" d="M27.5,87.1a.66.66,0,0,1-.69.64.71.71,0,0,1-.77-.59c0-.35.28-.61.71-.62S27.49,86.73,27.5,87.1Z"/><path class="cls-2" d="M26.77,82.21c-.44,0-.74-.24-.73-.61a.75.75,0,0,1,.77-.6.66.66,0,0,1,.69.61C27.51,82,27.24,82.22,26.77,82.21Z"/><path class="cls-2" d="M29.23,40.4c0-.4.22-.58.71-.57a.69.69,0,0,1,.73.58.7.7,0,0,1-.76.6C29.43,41,29.22,40.82,29.23,40.4Z"/><path class="cls-2" d="M88.45,39h2.49c-.08.38-.39.5-1.25.5S88.53,39.33,88.45,39Z"/><path class="cls-2" d="M27.39,131.06a.59.59,0,0,1-.61.57.57.57,0,0,1-.6-.54.5.5,0,0,1,.56-.55C27.14,130.53,27.38,130.73,27.39,131.06Z"/><path class="cls-2" d="M23.63,72.84a.66.66,0,0,1,.62.54c0,.23-.33.54-.6.55a.55.55,0,1,1,0-1.09Z"/><path class="cls-2" d="M23.63,122.31c.28,0,.63.29.63.52a.73.73,0,0,1-.61.55.63.63,0,0,1-.63-.55A.62.62,0,0,1,23.63,122.31Z"/><path class="cls-2" d="M23.63,128.86a.61.61,0,0,1-.61-.52.59.59,0,0,1,.6-.52.53.53,0,1,1,0,1Z"/><path class="cls-2" d="M23,56.9a.64.64,0,0,1,.61-.54c.28,0,.63.29.62.54s-.35.53-.62.54A.64.64,0,0,1,23,56.9Z"/><path class="cls-2" d="M23.63,46.43a.59.59,0,0,1-.61-.52c0-.3.25-.49.62-.48a.57.57,0,0,1,.61.52A.62.62,0,0,1,23.63,46.43Z"/><path class="cls-2" d="M23.66,95.9a.65.65,0,0,1-.64-.51.62.62,0,0,1,.59-.56.72.72,0,0,1,.64.52C24.27,95.59,23.94,95.9,23.66,95.9Z"/><path class="cls-2" d="M23.65,84.88a.57.57,0,0,1-.63-.49.58.58,0,0,1,.61-.53c.3,0,.64.28.63.52A.65.65,0,0,1,23.65,84.88Z"/><path class="cls-2" d="M23.62,51.91c-.37,0-.61-.21-.6-.52a.58.58,0,0,1,.64-.49.56.56,0,0,1,.58.5C24.3,51.65,23.94,51.92,23.62,51.91Z"/><path class="cls-2" d="M23.65,112.39a.66.66,0,0,1-.63-.52.65.65,0,0,1,.6-.55.7.7,0,0,1,.64.52A.66.66,0,0,1,23.65,112.39Z"/><path class="cls-2" d="M23,106.35a.64.64,0,0,1,.61-.53c.29,0,.63.3.62.54a.65.65,0,0,1-.62.52A.6.6,0,0,1,23,106.35Z"/><path class="cls-2" d="M23.6,78.37a.61.61,0,0,1,.65.49c0,.25-.3.54-.59.54a.63.63,0,0,1-.64-.5C23,78.6,23.25,78.38,23.6,78.37Z"/><path class="cls-2" d="M23,89.86a.66.66,0,0,1,.62-.52.64.64,0,0,1,.61.55.7.7,0,0,1-.63.52A.63.63,0,0,1,23,89.86Z"/><path class="cls-2" d="M23.64,116.86a.53.53,0,0,1,.6.48c.05.25-.3.52-.61.52a.54.54,0,0,1-.61-.51C23,117,23.25,116.86,23.64,116.86Z"/><path class="cls-2" d="M23.63,62.9a.58.58,0,0,1-.61-.52.59.59,0,0,1,.62-.51c.31,0,.63.3.61.55S23.91,62.9,23.63,62.9Z"/><path class="cls-2" d="M23.61,101.35c-.37,0-.61-.21-.59-.51a.57.57,0,0,1,.64-.49.56.56,0,0,1,.58.51C24.29,101.11,23.93,101.36,23.61,101.35Z"/><path class="cls-2" d="M23.61,68.39c-.36,0-.61-.22-.59-.52a.58.58,0,0,1,.64-.49.56.56,0,0,1,.58.51C24.3,68.14,24,68.39,23.61,68.39Z"/><path class="cls-2" d="M84.48,39a1.69,1.69,0,0,1-2.18,0Z"/><path class="cls-2" d="M24.13,40.44c0,.23-.15.4-.47.4s-.48-.11-.5-.4.15-.42.47-.42S24.12,40.12,24.13,40.44Z"/><path class="cls-2" d="M21,103.53c-.1.34-.27.45-.56.44s-.51-.13-.43-.37a.76.76,0,0,1,.5-.4C20.65,103.18,20.84,103.41,21,103.53Z"/><path class="cls-2" d="M21,81.71c-.17.11-.36.32-.5.3a.75.75,0,0,1-.49-.39c-.09-.26.17-.36.44-.37S20.92,81.35,21,81.71Z"/><path class="cls-2" d="M21,48.76c-.17.1-.35.3-.51.28a.65.65,0,0,1-.47-.36c-.08-.26.18-.4.46-.41S20.91,48.42,21,48.76Z"/><path class="cls-2" d="M21,87c0,.35-.22.53-.49.49a.68.68,0,0,1-.48-.36c-.08-.27.21-.41.48-.39S20.83,86.92,21,87Z"/><path class="cls-2" d="M21.13,120.08c-.29.19-.46.38-.63.37a.64.64,0,0,1-.48-.32c-.08-.29.2-.44.48-.43S20.83,119.89,21.13,120.08Z"/><path class="cls-2" d="M20.58,97.65a1.78,1.78,0,0,1,.33.46c.08.26-.16.4-.41.4s-.54-.13-.48-.4.22-.31.34-.46Z"/><path class="cls-2" d="M100.23,132.25H98.12A1.86,1.86,0,0,1,100.23,132.25Z"/><path class="cls-2" d="M20.93,70.49c0,.37-.14.56-.43.51s-.33-.22-.5-.33c.17-.15.31-.35.5-.41S20.82,70.43,20.93,70.49Z"/><path class="cls-2" d="M20.36,54.59c-.12-.15-.36-.32-.33-.44a.66.66,0,0,1,.45-.39.37.37,0,0,1,.45.38C20.92,54.41,20.75,54.52,20.36,54.59Z"/><path class="cls-2" d="M20.92,92.61a.33.33,0,0,1-.42.38c-.18,0-.33-.23-.5-.35.15-.13.28-.34.46-.38S20.94,92.31,20.92,92.61Z"/><path class="cls-2" d="M20.93,59.79c-.1.06-.29.26-.42.23s-.34-.23-.51-.36c.16-.13.29-.33.48-.37S20.93,59.4,20.93,59.79Z"/><path class="cls-2" d="M20.5,125c.2.25.37.37.41.53s-.14.38-.43.37-.52-.1-.46-.36S20.27,125.29,20.5,125Z"/><path class="cls-2" d="M21,65.22c-.15.11-.34.33-.45.31a1.86,1.86,0,0,1-.54-.37c.16-.13.3-.35.47-.37s.35.17.53.26Z"/><path class="cls-2" d="M20.58,75.71c.11.14.28.27.33.43s-.19.38-.4.35a.71.71,0,0,1-.48-.35c0-.11.21-.28.33-.43Z"/><path class="cls-2" d="M21,109.19c-.17.09-.35.27-.49.25s-.45-.2-.48-.34.23-.4.5-.37.32.18.48.28Z"/><path class="cls-2" d="M20.38,114.16c.4.08.6.22.52.46s-.31.37-.42.35a.67.67,0,0,1-.45-.38C20,114.46,20.25,114.3,20.38,114.16Z"/><path class="cls-2" d="M20.48,42.68c.2.22.44.37.41.46a.65.65,0,0,1-.43.34c-.13,0-.4-.2-.4-.31S20.28,42.9,20.48,42.68Z"/></g><path class="cls-4" d="M162.64,114.09,144.1,69.4h-.28l-7.61,44.69H120.62L132.5,46.77h17.78l18.45,44.4h.19l7.6-44.4h15.6l-11.89,67.32Z"/><path class="cls-4" d="M205.62,46.77h24.91a42.18,42.18,0,0,1,11.36,1.57,29.81,29.81,0,0,1,10.17,5,26.32,26.32,0,0,1,7.37,8.79,27.41,27.41,0,0,1,2.85,13,40.43,40.43,0,0,1-3.09,16.07,35.67,35.67,0,0,1-8.6,12.32,38.64,38.64,0,0,1-13,7.84,47.08,47.08,0,0,1-16.35,2.76H193.73Zm6.08,53.63h10.17a26.14,26.14,0,0,0,10.42-2,21.71,21.71,0,0,0,7.51-5.23,22.13,22.13,0,0,0,4.51-7.52,25.3,25.3,0,0,0,1.52-8.7,19.34,19.34,0,0,0-1.09-6.51,14.19,14.19,0,0,0-3.37-5.37,16.17,16.17,0,0,0-5.76-3.61,22.85,22.85,0,0,0-8.22-1.33h-8.65Z"/><path class="cls-4" d="M308.11,63.12a12.38,12.38,0,0,0-4.75-3.9A15,15,0,0,0,297,57.89a15.25,15.25,0,0,0-3.43.43,9.86,9.86,0,0,0-3.28,1.43,8.86,8.86,0,0,0-2.47,2.52,6.57,6.57,0,0,0-1,3.71,5.33,5.33,0,0,0,2.24,4.51,24.08,24.08,0,0,0,6.22,3.09,52.77,52.77,0,0,1,7.8,3.38,24.52,24.52,0,0,1,5.8,4.23,16.29,16.29,0,0,1,3.61,5.37,17.58,17.58,0,0,1,1.24,6.8,20.06,20.06,0,0,1-2.52,10.36,21.4,21.4,0,0,1-6.51,7,28,28,0,0,1-8.94,4,39.73,39.73,0,0,1-17,.57,39.76,39.76,0,0,1-6.94-2,29,29,0,0,1-6.18-3.28,22.06,22.06,0,0,1-4.85-4.57l11.7-9.5a14.32,14.32,0,0,0,5.89,4.94,17.81,17.81,0,0,0,7.89,1.9,18.52,18.52,0,0,0,4-.43,10.23,10.23,0,0,0,3.47-1.42,7.56,7.56,0,0,0,2.43-2.57,7.42,7.42,0,0,0,.9-3.76A6.5,6.5,0,0,0,294.23,89a29.52,29.52,0,0,0-7.61-3.66,51.94,51.94,0,0,1-6.23-2.57,19.33,19.33,0,0,1-5-3.51,16,16,0,0,1-3.43-5,17.35,17.35,0,0,1-1.28-7A19.79,19.79,0,0,1,272.79,58a21,21,0,0,1,5.85-7,27.38,27.38,0,0,1,8.65-4.47A34.52,34.52,0,0,1,297.84,45a33.07,33.07,0,0,1,11.84,2.24,26,26,0,0,1,5.18,2.71,17.28,17.28,0,0,1,4,3.7Z"/><path class="cls-5" d="M164.8,114.09,146.26,69.4H146l-7.61,44.69H122.77l11.89-67.32h17.78l18.44,44.4h.19l7.61-44.4h15.59l-11.89,67.32Z"/><path class="cls-5" d="M207.77,46.77h24.91A42.18,42.18,0,0,1,244,48.34a30,30,0,0,1,10.17,5,26.36,26.36,0,0,1,7.37,8.8,27.35,27.35,0,0,1,2.86,13,40.42,40.42,0,0,1-3.1,16.06,35.45,35.45,0,0,1-8.6,12.32,38.64,38.64,0,0,1-13,7.84,47,47,0,0,1-16.35,2.76H195.88Zm6.08,53.63H224a26.05,26.05,0,0,0,10.41-2A21.58,21.58,0,0,0,242,93.22a22.21,22.21,0,0,0,4.52-7.51A25.62,25.62,0,0,0,248,77a19.36,19.36,0,0,0-1.1-6.52,14.19,14.19,0,0,0-3.37-5.37,16.27,16.27,0,0,0-5.75-3.61,22.94,22.94,0,0,0-8.23-1.33h-8.65Z"/><path class="cls-5" d="M310.26,63.12a12.26,12.26,0,0,0-4.75-3.89,14.86,14.86,0,0,0-6.37-1.34,15.1,15.1,0,0,0-3.42.43,9.91,9.91,0,0,0-3.29,1.43A9,9,0,0,0,290,62.27,6.65,6.65,0,0,0,289,66a5.32,5.32,0,0,0,2.24,4.51,24,24,0,0,0,6.23,3.09A53.09,53.09,0,0,1,305.22,77a25.09,25.09,0,0,1,5.8,4.23,16.53,16.53,0,0,1,3.62,5.37,17.8,17.8,0,0,1,1.23,6.8,20.06,20.06,0,0,1-2.52,10.36,21.4,21.4,0,0,1-6.51,7,27.56,27.56,0,0,1-8.94,4,39.3,39.3,0,0,1-17,.57,38.09,38.09,0,0,1-6.94-2,28.53,28.53,0,0,1-6.18-3.28,22.26,22.26,0,0,1-4.85-4.56l11.7-9.51a14.24,14.24,0,0,0,5.89,4.94,17.81,17.81,0,0,0,7.89,1.9,19,19,0,0,0,4-.42,10.38,10.38,0,0,0,3.48-1.43,7.54,7.54,0,0,0,2.42-2.57,7.38,7.38,0,0,0,.9-3.75A6.5,6.5,0,0,0,296.38,89a29.52,29.52,0,0,0-7.61-3.66,52.74,52.74,0,0,1-6.22-2.56,19.25,19.25,0,0,1-5-3.52,15.9,15.9,0,0,1-3.43-5,17.35,17.35,0,0,1-1.28-7A19.82,19.82,0,0,1,274.94,58a21.34,21.34,0,0,1,5.85-7,27.38,27.38,0,0,1,8.65-4.47A34.87,34.87,0,0,1,300,45a33.07,33.07,0,0,1,11.84,2.24A25.71,25.71,0,0,1,317,49.91a17.16,17.16,0,0,1,4,3.71Z"/><path class="cls-5" d="M125.93,127.48l-2.44-5.79h0l-1,5.79h-1.29l1.31-7.45h1.69l2.39,5.61h0l1-5.61h1.3l-1.32,7.45Z"/><path class="cls-5" d="M134.78,127.48l-.3-1.72h-3.19l-1.06,1.72h-1.54l4.86-7.45h1.13l1.48,7.45Zm-1-6-1.88,3.13h2.38Z"/><path class="cls-5" d="M140.42,121.17l-1.12,6.31H138l1.1-6.31h-2.2l.2-1.14h5.7l-.2,1.14Z"/><path class="cls-5" d="M142.71,127.48,144,120h1.29L144,127.48Z"/><path class="cls-5" d="M150.76,119.84a4.35,4.35,0,0,1,1.44.23,3.16,3.16,0,0,1,1.12.64,2.93,2.93,0,0,1,.71,1,3.42,3.42,0,0,1,.25,1.35,4.86,4.86,0,0,1-.32,1.79,4.41,4.41,0,0,1-.89,1.46,4.22,4.22,0,0,1-1.34,1,3.89,3.89,0,0,1-1.71.37,4.89,4.89,0,0,1-1.48-.22,3.08,3.08,0,0,1-1.13-.65,2.86,2.86,0,0,1-.72-1,3.37,3.37,0,0,1-.25-1.34,4.86,4.86,0,0,1,.33-1.79,4.45,4.45,0,0,1,.91-1.46,4.33,4.33,0,0,1,1.36-1A4.11,4.11,0,0,1,150.76,119.84Zm-.74,6.69a2.65,2.65,0,0,0,1.25-.28,2.68,2.68,0,0,0,.91-.76,3.44,3.44,0,0,0,.57-1.07,4,4,0,0,0,.2-1.23,2.53,2.53,0,0,0-.15-.87,2,2,0,0,0-.43-.71,2.12,2.12,0,0,0-.71-.48,2.61,2.61,0,0,0-1-.17,2.58,2.58,0,0,0-1.22.28,2.82,2.82,0,0,0-.92.76,3.35,3.35,0,0,0-.58,1.07,3.7,3.7,0,0,0-.21,1.23,2.49,2.49,0,0,0,.15.87,2,2,0,0,0,.43.7,2.08,2.08,0,0,0,.7.48A2.5,2.5,0,0,0,150,126.53Z"/><path class="cls-5" d="M160.11,127.48l-2.44-5.79h0l-1,5.79h-1.3l1.32-7.45h1.68l2.4,5.61h0l1-5.61H163l-1.31,7.45Z"/><path class="cls-5" d="M169,127.48l-.31-1.72h-3.19l-1.06,1.72h-1.53l4.86-7.45h1.12l1.48,7.45Zm-1-6-1.88,3.13h2.37Z"/><path class="cls-5" d="M171.49,127.48l1.32-7.45h1.29L173,126.32h3.18l-.2,1.16Z"/><path class="cls-5" d="M181.4,120H184a4.89,4.89,0,0,1,1.25.17,3.39,3.39,0,0,1,1.11.55,2.73,2.73,0,0,1,.8,1,3,3,0,0,1,.31,1.42,4.59,4.59,0,0,1-.34,1.78,3.94,3.94,0,0,1-1,1.37,4.2,4.2,0,0,1-1.44.88,5.25,5.25,0,0,1-1.81.31h-2.78Zm.17,6.31h1.36a3.4,3.4,0,0,0,1.36-.25,2.81,2.81,0,0,0,1.58-1.64,3.32,3.32,0,0,0,.2-1.13,2.32,2.32,0,0,0-.15-.84,1.67,1.67,0,0,0-.44-.69,2.08,2.08,0,0,0-.76-.47,3,3,0,0,0-1.09-.17h-1.15Z"/><path class="cls-5" d="M188.47,127.48l1.31-7.45h1.3l-1.32,7.45Z"/><path class="cls-5" d="M196.64,121.57a1.26,1.26,0,0,0-.55-.5,1.86,1.86,0,0,0-.74-.16,1.44,1.44,0,0,0-.44.07,1.49,1.49,0,0,0-.45.19,1.14,1.14,0,0,0-.34.35,1,1,0,0,0-.14.54.73.73,0,0,0,.28.62,2.9,2.9,0,0,0,.75.4,4.45,4.45,0,0,1,1.51.86,1.76,1.76,0,0,1,.52,1.35,2.12,2.12,0,0,1-.91,1.83,3,3,0,0,1-.93.42,4.56,4.56,0,0,1-1,.13,3.72,3.72,0,0,1-.74-.08,3.26,3.26,0,0,1-.71-.22,3.06,3.06,0,0,1-.63-.37,2.31,2.31,0,0,1-.49-.54l1-.73a1.64,1.64,0,0,0,.64.61,2,2,0,0,0,.94.23,2.24,2.24,0,0,0,.52-.06,1.42,1.42,0,0,0,.47-.2,1.17,1.17,0,0,0,.33-.37,1.09,1.09,0,0,0,.13-.57.82.82,0,0,0-.11-.44,1.05,1.05,0,0,0-.29-.34,2.25,2.25,0,0,0-.43-.27c-.16-.07-.33-.15-.51-.21a5.36,5.36,0,0,1-.64-.28,2.34,2.34,0,0,1-.53-.39,1.7,1.7,0,0,1-.36-.54,1.9,1.9,0,0,1-.13-.75,2,2,0,0,1,.23-1,2.33,2.33,0,0,1,.63-.73,2.92,2.92,0,0,1,.9-.45,3.72,3.72,0,0,1,1.06-.15,3,3,0,0,1,.58.06,3.93,3.93,0,0,1,.58.19,2.7,2.7,0,0,1,.52.3,1.68,1.68,0,0,1,.42.42Z"/><path class="cls-5" d="M198.41,127.48l1.31-7.45H201l-1.32,7.45Z"/><path class="cls-5" d="M206.67,127.48l-2.44-5.79h0l-1,5.79h-1.3l1.32-7.45h1.68l2.4,5.61h0l1-5.61h1.29l-1.31,7.45Z"/><path class="cls-5" d="M213,121.17l-.37,2.06h3.12l-.19,1.09h-3.12l-.56,3.16H210.6l1.32-7.45h4.6l-.2,1.14Z"/><path class="cls-5" d="M216.87,127.48l1.31-7.45h4.7l-.2,1.14h-3.43l-.34,1.92h3.27l-.2,1.1h-3.26l-.38,2.13h3.73l-.2,1.16Z"/><path class="cls-5" d="M230,126.31a3.52,3.52,0,0,1-1.18,1,3.54,3.54,0,0,1-.81.29,4.23,4.23,0,0,1-1,.11,3.92,3.92,0,0,1-1.36-.23,3.18,3.18,0,0,1-1-.66,2.86,2.86,0,0,1-.68-1,3.38,3.38,0,0,1-.24-1.3,4.89,4.89,0,0,1,.33-1.81,4.84,4.84,0,0,1,.93-1.47,4.67,4.67,0,0,1,1.4-1,4.21,4.21,0,0,1,2.52-.28,4,4,0,0,1,.71.24,2.55,2.55,0,0,1,.6.35,2.11,2.11,0,0,1,.43.47l-1,.76a2.35,2.35,0,0,0-.22-.26,1.53,1.53,0,0,0-.34-.26,1.85,1.85,0,0,0-.45-.19A1.88,1.88,0,0,0,228,121a2.57,2.57,0,0,0-1.21.28,2.93,2.93,0,0,0-.95.76,3.66,3.66,0,0,0-.62,1.07,3.71,3.71,0,0,0-.22,1.23,2.74,2.74,0,0,0,.14.87,2.31,2.31,0,0,0,.41.7,2,2,0,0,0,.67.48,2.22,2.22,0,0,0,.92.18,2.59,2.59,0,0,0,1.06-.23,2.39,2.39,0,0,0,.9-.73Z"/><path class="cls-5" d="M234.69,121.17l-1.12,6.31h-1.29l1.11-6.31h-2.21l.2-1.14h5.7l-.2,1.14Z"/><path class="cls-5" d="M237,127.48,238.3,120h1.29l-1.31,7.45Z"/><path class="cls-5" d="M245,119.84a4.45,4.45,0,0,1,1.45.23,3.2,3.2,0,0,1,1.11.64,2.93,2.93,0,0,1,.71,1,3.42,3.42,0,0,1,.25,1.35,4.86,4.86,0,0,1-.32,1.79,4.41,4.41,0,0,1-.89,1.46,4.22,4.22,0,0,1-1.34,1,3.89,3.89,0,0,1-1.71.37,4.89,4.89,0,0,1-1.48-.22,3.08,3.08,0,0,1-1.13-.65,2.86,2.86,0,0,1-.72-1,3.37,3.37,0,0,1-.25-1.34,4.86,4.86,0,0,1,.33-1.79,4.45,4.45,0,0,1,.91-1.46,4.33,4.33,0,0,1,1.36-1A4.11,4.11,0,0,1,245,119.84Zm-.74,6.69a2.65,2.65,0,0,0,1.25-.28,2.82,2.82,0,0,0,.92-.76,3.64,3.64,0,0,0,.56-1.07,4,4,0,0,0,.2-1.23,2.53,2.53,0,0,0-.15-.87,2,2,0,0,0-.43-.71,2.12,2.12,0,0,0-.71-.48,2.61,2.61,0,0,0-1-.17,2.58,2.58,0,0,0-1.22.28,2.82,2.82,0,0,0-.92.76,3.35,3.35,0,0,0-.58,1.07,3.7,3.7,0,0,0-.21,1.23,2.49,2.49,0,0,0,.15.87,2,2,0,0,0,.43.7,2.12,2.12,0,0,0,.71.48A2.42,2.42,0,0,0,244.29,126.53Z"/><path class="cls-5" d="M254.38,127.48l-2.44-5.79h0l-1,5.79h-1.29l1.31-7.45h1.68l2.4,5.61h0l1-5.61h1.3L256,127.48Z"/><path class="cls-5" d="M266.06,121.57a1.28,1.28,0,0,0-.56-.5,1.78,1.78,0,0,0-.74-.16,1.94,1.94,0,0,0-.89.26,1.26,1.26,0,0,0-.34.35,1,1,0,0,0-.13.54.75.75,0,0,0,.27.62,2.82,2.82,0,0,0,.76.4,4.39,4.39,0,0,1,1.5.86,1.77,1.77,0,0,1,.53,1.35,2.17,2.17,0,0,1-.26,1.09,2.05,2.05,0,0,1-.66.74,2.86,2.86,0,0,1-.92.42,4.71,4.71,0,0,1-1.05.13,3.81,3.81,0,0,1-.74-.08,3.44,3.44,0,0,1-.71-.22,3,3,0,0,1-.62-.37,1.94,1.94,0,0,1-.49-.54l1.05-.73a1.57,1.57,0,0,0,.64.61,2,2,0,0,0,.94.23,2.31,2.31,0,0,0,.52-.06,1.46,1.46,0,0,0,.46-.2,1.2,1.2,0,0,0,.34-.37,1.09,1.09,0,0,0,.13-.57.93.93,0,0,0-.11-.44,1.08,1.08,0,0,0-.3-.34,2.17,2.17,0,0,0-.42-.27c-.16-.07-.34-.15-.52-.21a6,6,0,0,1-.63-.28,2.66,2.66,0,0,1-.54-.39,1.7,1.7,0,0,1-.36-.54,1.9,1.9,0,0,1-.13-.75,2,2,0,0,1,.24-1,2.18,2.18,0,0,1,.62-.73,2.92,2.92,0,0,1,.9-.45,3.72,3.72,0,0,1,1.06-.15,2.93,2.93,0,0,1,.58.06,3.58,3.58,0,0,1,.58.19,2.78,2.78,0,0,1,.53.3,1.81,1.81,0,0,1,.41.42Z"/><path class="cls-5" d="M267.82,127.48l1.32-7.45h4.69l-.2,1.14H270.2l-.34,1.92h3.28l-.2,1.1h-3.26l-.38,2.13H273l-.2,1.16Z"/><path class="cls-5" d="M280.07,127.48h-1.46l-1.41-3.18h-1l-.55,3.18h-1.27L275.7,120h2.21a3.09,3.09,0,0,1,1.9.51,1.67,1.67,0,0,1,.67,1.42,2,2,0,0,1-.53,1.44,2.74,2.74,0,0,1-1.43.75Zm-2.71-4.24a2.65,2.65,0,0,0,1.32-.27,1,1,0,0,0,.46-.88.8.8,0,0,0-.39-.76,2.18,2.18,0,0,0-1-.21h-.93l-.38,2.12Z"/><path class="cls-5" d="M284.11,127.48h-1.2L281.7,120h1.37l.74,5.77h0l3.32-5.77h1.46Z"/><path class="cls-5" d="M288.41,127.48l1.31-7.45H291l-1.32,7.45Z"/><path class="cls-5" d="M298.41,126.31a3.18,3.18,0,0,1-.51.53,3.07,3.07,0,0,1-.67.43,3.23,3.23,0,0,1-.81.29,4.08,4.08,0,0,1-1,.11,3.92,3.92,0,0,1-1.36-.23,3.13,3.13,0,0,1-1.05-.66,3,3,0,0,1-.68-1,3.38,3.38,0,0,1-.24-1.3,4.7,4.7,0,0,1,.34-1.81,4.49,4.49,0,0,1,.93-1.47,4.76,4.76,0,0,1,1.39-1,4.19,4.19,0,0,1,1.73-.36,4.07,4.07,0,0,1,.79.08,3.8,3.8,0,0,1,.72.24,2.3,2.3,0,0,1,.59.35,1.89,1.89,0,0,1,.43.47l-1,.76a1.6,1.6,0,0,0-.22-.26,1.46,1.46,0,0,0-.33-.26A2.25,2.25,0,0,0,297,121a1.93,1.93,0,0,0-.55-.07,2.64,2.64,0,0,0-1.22.28,2.89,2.89,0,0,0-.94.76,3.59,3.59,0,0,0-.84,2.3,2.74,2.74,0,0,0,.14.87,2.12,2.12,0,0,0,.41.7,2,2,0,0,0,.67.48,2.21,2.21,0,0,0,.91.18,2.6,2.6,0,0,0,1.07-.23,2.55,2.55,0,0,0,.9-.73Z"/><path class="cls-5" d="M299.48,127.48l1.31-7.45h4.69l-.2,1.14h-3.43l-.33,1.92h3.27l-.2,1.1h-3.26l-.38,2.13h3.72l-.2,1.16Z"/><path class="cls-5" d="M310.73,121.57a1.26,1.26,0,0,0-.55-.5,1.86,1.86,0,0,0-.74-.16,1.55,1.55,0,0,0-.45.07,1.34,1.34,0,0,0-.44.19,1.14,1.14,0,0,0-.34.35,1,1,0,0,0-.14.54.73.73,0,0,0,.28.62,2.6,2.6,0,0,0,.75.4,4.39,4.39,0,0,1,1.5.86,1.77,1.77,0,0,1,.53,1.35,2.12,2.12,0,0,1-.91,1.83,3,3,0,0,1-.93.42,4.56,4.56,0,0,1-1,.13,3.72,3.72,0,0,1-.74-.08,3.26,3.26,0,0,1-.71-.22,2.82,2.82,0,0,1-.63-.37,2.11,2.11,0,0,1-.49-.54l1.05-.73a1.64,1.64,0,0,0,.64.61,2,2,0,0,0,.94.23,2.24,2.24,0,0,0,.52-.06,1.37,1.37,0,0,0,.46-.2,1.2,1.2,0,0,0,.34-.37,1.09,1.09,0,0,0,.13-.57.82.82,0,0,0-.11-.44,1.05,1.05,0,0,0-.29-.34,2.25,2.25,0,0,0-.43-.27c-.16-.07-.33-.15-.51-.21a5.36,5.36,0,0,1-.64-.28,2.34,2.34,0,0,1-.53-.39,1.42,1.42,0,0,1-.36-.54,1.89,1.89,0,0,1-.14-.75,2,2,0,0,1,.24-1,2.33,2.33,0,0,1,.63-.73,2.92,2.92,0,0,1,.9-.45,3.7,3.7,0,0,1,1.05-.15,3,3,0,0,1,.59.06,3.93,3.93,0,0,1,.58.19,2.7,2.7,0,0,1,.52.3,1.86,1.86,0,0,1,.42.42Z"/><g id="_0prFfY" data-name="0prFfY"><path class="cls-5" d="M314.3,110.39h.41l.07,0a2.49,2.49,0,0,1,1.77,3.9,2.5,2.5,0,0,1-4.36-.5,5.83,5.83,0,0,1-.18-.72v-.41s0-.07,0-.1a2.41,2.41,0,0,1,1.49-2A5,5,0,0,1,314.3,110.39Zm2.32,2.51a2.12,2.12,0,1,0-2.15,2.11A2.12,2.12,0,0,0,316.62,112.9Z"/><path class="cls-5" d="M314.12,113.19V114h-.37v-2.3c.29,0,.58,0,.87,0a2.08,2.08,0,0,1,.55.07.63.63,0,0,1,.42.69.61.61,0,0,1-.47.62l-.13,0,.55.88h-.33s-.07,0-.09-.08c-.15-.22-.3-.44-.44-.67a.16.16,0,0,0-.17-.1Zm0-.3a6.8,6.8,0,0,0,.8-.07.38.38,0,0,0,0-.74c-.26,0-.53,0-.8-.06Z"/></g><rect class="cls-2" x="20" y="133.75" width="298.86" height="1"/></svg>